<svg xmlns="http://www.w3.org/2000/svg" version="1.1" xmlns:xlink="http://www.w3.org/1999/xlink" xmlns:svgjs="http://svgjs.dev/svgjs" viewBox="0 0 12.853708061195714 12.853708061195714"><g transform="matrix(1,0,0,1,4.190594019708555,3.974830497988852)"><g><path d=" M -1.5008461146276182 0.3833617314691268 Q -1.4920658193763643 0.3686999043421886 -1.4784974768138324 0.371703090846229 Q -1.4649291342513004 0.3747062773502694 -1.4389567547692956 0.3902599432239194 Q -1.4129843752872908 0.40581360909756936 -1.3860985557408343 0.4122388914521341 Q -1.3592127361943775 0.4186641738066989 -1.3361871230162539 0.415378919820649 Q -1.289885031081399 0.4083895025020652 -1.262791548591815 0.3631472930817988 Q -1.2356980661022314 0.3179050836615325 -1.2529459621168408 0.2711510719872828 Q -1.2701938581314502 0.22439706031303314 -1.3326113507575583 0.1870180891005518 Q -1.4159743107078642 0.13709583895770755 -1.5233015421975025 0.16900735382936982 Q -1.5537751012159446 0.17807691700188005 -1.584456914834421 0.18844461911920735 Q -1.615138728452897 0.1988123212365347 -1.646450106164307 0.20738015325183035 Q -1.677761483875717 0.215947985267126 -1.710753299265894 0.2178180680315096 Q -1.783100991907822 0.22173107762098465 -1.8488697593058019 0.1823451817796452 Q -1.9163141640897174 0.14195582362387676 -1.9339539594239388 0.07732374342578324 Q -1.9514257109902835 0.013361438152780902 -1.915802798828053 -0.04612368904793973 Q -1.8851971982379676 -0.09723062931898141 -1.8312791166949176 -0.10933458089893433 Q -1.7700763327865952 -0.1221983296539555 -1.7022934403205106 -0.07762227817976308 Q -1.6991930311272463 -0.07519644420442118 -1.6952974142195871 -0.07314810867019783 Q -1.691401797311928 -0.07109977313597449 -1.6815562275963474 -0.06378086030458319 Q -1.6717106578807668 -0.05646194747319189 -1.668182938828564 -0.04382024578039734 Q -1.6646552197763613 -0.031178544087602678 -1.6700488297164173 -0.022171993138197843 Q -1.6754424396564735 -0.013165442188793008 -1.6873741555920194 -0.01177368077437535 Q -1.699305871527565 -0.010381919359957581 -1.7114566427220153 -0.020504164607809572 Q -1.7387757724934492 -0.04426317335043062 -1.7544848729865972 -0.05367063254820281 Q -1.7701939734797452 -0.063078091745975 -1.7878235765713975 -0.06595224524108845 Q -1.8054531796630497 -0.06882639873620189 -1.8226164621368137 -0.06487617011789193 Q -1.8592032174382227 -0.05605267223115784 -1.880777657198447 -0.02002646843353828 Q -1.9046098871661363 0.019769919482436782 -1.8924327143611153 0.06121074288094536 Q -1.87882836960235 0.10692108140860851 -1.8348428882215353 0.1332619671623705 Q -1.7908574068407208 0.15960285291613252 -1.7580678456845393 0.1661487677671698 Q -1.7252782845283576 0.17269468261820708 -1.6940875393134203 0.1700305922126365 Q -1.662896794098483 0.1673665018070658 -1.6328421444265246 0.15804607305594837 Q -1.6027874947545666 0.14872564430483093 -1.5727754560611815 0.13852598595538035 Q -1.5427634173677964 0.1283263276059297 -1.5120804036761124 0.11938219722272314 Q -1.4813973899844284 0.11043806683951657 -1.4492433932872193 0.10806625291791849 Q -1.3773146099917752 0.10390237774983618 -1.3107080239008275 0.1437900047483901 Q -1.2327908854548133 0.19045100236933998 -1.2103750435413918 0.2585123788572046 Q -1.188127245395847 0.325903980419978 -1.2280148723944009 0.39251056651092575 Q -1.2651429780282748 0.45450914979055 -1.33622914233792 0.46486904305232984 Q -1.403128613329141 0.47489044863194074 -1.45926246575799 0.44127446109856827 Q -1.515396318186839 0.40765847356519574 -1.5008461146276182 0.3833617314691268 M -1.6097105215270053 -0.4803751986445054 Q -1.6025990651987532 -0.48968950433273895 -1.5889109301850148 -0.4915252121327235 Q -1.5752227951712765 -0.49336091993270803 -1.5471711218805377 -0.47900829653981924 Q -1.5191194485897987 -0.4646556731469307 -1.4663608113012363 -0.43881127051941926 Q -1.413602174012674 -0.41296686789190806 -1.3530042908567315 -0.3845160227657821 Q -1.2924064077007889 -0.35606517763965617 -1.2276207759058986 -0.3262599799416368 Q -1.1628351441110085 -0.29645478224361743 -1.1013483289140344 -0.2691682253285207 Q -0.9566702404398352 -0.2060100691169704 -0.8876549509853051 -0.17973315149186514 Q -0.8703322895791732 -0.17265061702257367 -0.8663869915769552 -0.16011629296469154 Q -0.8624416935747372 -0.14758196890680947 -0.8680715965012702 -0.1402081435702912 Q -0.8737014994278033 -0.1328343182337729 -0.8825633717469066 -0.13007824662723755 Q -0.8914252440660099 -0.1273221750207023 -0.9159381600286617 -0.13866579891515296 Q -0.9404510759913134 -0.15000942280960367 -0.9954110888721084 -0.17538442123194575 Q -1.0503711017529034 -0.20075941965428784 -1.113502086621249 -0.22991562604144689 Q -1.1161269737236512 -0.23130539405316686 -1.1183637647557105 -0.23239885138454297 Q -1.139677179230121 -0.2068972506422459 -1.1764197035927575 -0.15877333791970544 Q -1.2196810629229584 -0.10211131164961751 -1.240944601028062 -0.07104267151182586 Q -1.2389123352863474 -0.06887671135941975 -1.236880069544633 -0.06671075120701364 Q -1.1408547763647452 0.04407844910500322 -1.0869643187694826 0.10303925468031083 Q -1.0701345259854247 0.12203206008127748 -1.0828758852402098 0.1387201911060294 Q -1.096209865855683 0.15618451427146748 -1.1162491997542163 0.1470278050397691 Q -1.1221833807097077 0.14434005440632836 -1.130383274556219 0.13255049072361313 Q -1.1385831684027303 0.12076092704089794 -1.1599823123152133 0.09367196420634104 Q -1.181381456227696 0.06658300137178413 -1.209653589506009 0.03240353671932117 Q -1.2379257227843217 -0.0017759279331417965 -1.2718606645224355 -0.041814758987135825 Q -1.3057956062605491 -0.08185359004112985 -1.3417628137403774 -0.12405838124752999 Q -1.377730021220206 -0.16626317245393019 -1.4142793728055487 -0.20891242968084606 Q -1.4508287243908917 -0.251561686907762 -1.4850599768093493 -0.29121242189141294 Q -1.519291229227807 -0.33086315687506396 -1.5492180094326642 -0.36569161283838725 Q -1.5791447896375217 -0.40052006880171054 -1.5965462492719213 -0.42117799838439485 Q -1.6277854730279797 -0.4567013383535782 -1.6097105215270053 -0.4803751986445054 M -1.2714076326434345 -0.10597339012032153 Q -1.24733563665593 -0.1342834487450193 -1.2091115588915744 -0.1843478418192751 Q -1.1774063160947832 -0.2258741213459834 -1.1596067207638066 -0.2516012018889713 Q -1.2011459874522463 -0.2704154563230565 -1.2446257344924017 -0.290711264158861 Q -1.3122303014248655 -0.3220543852087723 -1.3754530716832103 -0.3518949983466182 Q -1.4791426058089652 -0.4003453406282047 -1.5569504104706942 -0.437635629795339 Q -1.5191345080291496 -0.39463369193790654 -1.4550328453560075 -0.3192760462050738 Q -1.3691688808846927 -0.2193166466550876 -1.3242046329073207 -0.16717098672768832 Q -1.2970299406346915 -0.13597956706331726 -1.2714076326434345 -0.10597339012032153 M -1.0627085413456734 -1.0533568356990577 Q -0.8913758012579904 -0.8807809493927776 -0.8194794679426763 -0.8100870889061211 Q -0.7475831346273623 -0.7393932284194645 -0.713813918670117 -0.7065311975705314 Q -0.6800447027128718 -0.6736691667215983 -0.6494118946793658 -0.6442334789297155 Q -0.5846646159820722 -0.5819386718453854 -0.5603075353525306 -0.5597009248741455 Q -0.535950454722989 -0.5374631779029057 -0.5334783522039617 -0.5309237193740028 Q -0.5310062496849344 -0.5243842608451001 -0.5312961848182454 -0.5178215098643105 Q -0.532450102238518 -0.4908799965280676 -0.5586428750319593 -0.4851346429304659 Q -0.5689830468893132 -0.4829757679966365 -0.5800777824024406 -0.48840667349376593 Q -0.7000308754686722 -0.5460925750618518 -0.8478017206416888 -0.606478761338436 Q -0.9955725658147053 -0.6668649476150202 -1.0558681630459907 -0.6925976944836967 Q -1.165370445108406 -0.7393227921370045 -1.253768516724453 -0.7810466741378148 L -0.763626118849442 -0.30800414122843595 Q -0.7528329646955692 -0.2973915035766861 -0.75308796115105 -0.28668569611738887 Q -0.7533429576065308 -0.27597988865809164 -0.760360992182688 -0.2688424802660145 Q -0.7673790267588452 -0.26170507187393727 -0.7791147752247976 -0.2612608242468759 Q -0.79085052369075 -0.2608165766198146 -0.8019976672206227 -0.27246206683470553 Q -0.894319958052801 -0.37008809573051027 -1.0168744826387117 -0.49059288455037997 L -1.223337076614408 -0.6936023725338536 Q -1.2773028473837722 -0.746665560792603 -1.3169821551430385 -0.784311661072869 Q -1.3298643068750804 -0.7969783576249575 -1.3289508281278593 -0.8114877899691918 Q -1.3280373493806383 -0.825997222313426 -1.319478770629227 -0.8347013788891299 Q -1.300307554226066 -0.8541986896187066 -1.2756925655845577 -0.8423214954002216 Q -1.2510775769430493 -0.8304443011817366 -1.2086193724501666 -0.8112940759316137 Q -1.1661611679572839 -0.7921438506814908 -1.1140008930033864 -0.768932092534464 Q -1.061840618049489 -0.7457203343874375 -1.003100122775887 -0.7201471128678458 Q -0.9443596275022849 -0.6945738913482543 -0.8859672984917109 -0.6693430129787192 Q -0.827574969481137 -0.644112134609184 -0.7728209168934435 -0.6204043310759879 Q -0.7180668643057501 -0.5966965275427916 -0.6733630484420994 -0.5773926000565556 Q -0.6286592325784488 -0.5580886725703196 -0.5971216804671793 -0.5441981812422978 Q -0.5957348385280384 -0.5435193180551567 -0.5946961628519256 -0.5431827980180719 Q -0.6656754956058957 -0.6074967253249105 -0.7478136181156819 -0.6848371616728092 Q -0.847360053776876 -0.7792947555235303 -0.8973015316260153 -0.8260042146108344 Q -0.9472430094751547 -0.8727136736981387 -0.9984030692448925 -0.9206213338106404 Q -1.0495631290146303 -0.9685289939231421 -1.1003662878518825 -1.0150585467659605 Q -1.1115076082687836 -1.0260135275677666 -1.110913180219732 -1.0374127559966344 Q -1.1103187521706808 -1.0488119844255022 -1.1031295460194954 -1.0561234759490934 Q -1.0959403398683099 -1.0634349674726846 -1.0848951008154422 -1.0638733919867742 Q -1.0738498617625742 -1.0643118165008638 -1.0627085413456734 -1.0533568356990577 M -0.8241430096040319 -1.2904564486094625 Q -0.8135131314784498 -1.2990544633251337 -0.6899297236224537 -1.4040394601325423 Q -0.6724663524161403 -1.4181647700225735 -0.6552649794453052 -1.4100976455858247 Q -0.6506757058860538 -1.4075295483574983 -0.6466837704823494 -1.4025942477991924 Q -0.642691835078645 -1.3976589472408865 -0.6442409412651511 -1.3879277481183714 Q -0.6457900474516574 -1.3781965489958563 -0.6616622980896765 -1.365986237380966 Q -0.6775345487276956 -1.3537759257660755 -0.6927647750586332 -1.3427129325409979 Q -0.7079950013895708 -1.3316499393159202 -0.7208301439917094 -1.3218962033340786 Q -0.743842959664591 -1.3045382350493133 -0.7594807048988331 -1.2912615744713218 Q -0.6918912634845585 -1.2014881428067055 -0.6092889078232901 -1.0993653851002203 Q -0.5208521850335306 -0.9900294958085188 -0.48795920266632486 -0.9497515310579239 Q -0.45506622029911914 -0.909473566307329 -0.4245209637394314 -0.8732627752805389 Q -0.347228203601461 -0.7800336420306336 -0.3092406535922727 -0.735398237354818 Q -0.2984205686473299 -0.7227976001564566 -0.2996179167281703 -0.7114668775892895 Q -0.3008152648090107 -0.7001361550221225 -0.3082182156464697 -0.6941482519165658 Q -0.3156211664839287 -0.6881603488110092 -0.32740409410593474 -0.6883639144791023 Q -0.3391870217279408 -0.6885674801471955 -0.3487062523060052 -0.7003362737862328 L -0.3893123168016656 -0.7497618459196465 L -0.6787696479520244 -1.1153873372442042 Q -0.7607578597050306 -1.2167508179417192 -0.799342747869766 -1.2590190192875554 Q -0.8197706605616061 -1.2431238442230914 -0.845948911618361 -1.2188093990490951 Q -0.8767553912792908 -1.1901233799669093 -0.8906037938166385 -1.1773520134716489 Q -0.904452196353986 -1.1645806469763884 -0.9151324917377138 -1.165362073277567 Q -0.9258127871214417 -1.1661434995787452 -0.9318006902269984 -1.173546450416204 Q -0.9377885933325549 -1.1809494012536632 -0.9375487443892848 -1.1930756841049774 Q -0.9373088954460147 -1.2052019669562914 -0.9233711206055979 -1.2155335635712183 Q -0.9094333457651811 -1.225865160186145 -0.8992556726944381 -1.2334693924890687 Q -0.889077999623695 -1.2410736247919925 -0.8813679768321049 -1.2466818893930642 Q -0.8736579540405148 -1.2522901539941356 -0.8676563045191076 -1.2565165948016173 Q -0.8616546549977003 -1.260743035609099 -0.8556167222011162 -1.2653128316458884 Q -0.8495787894045319 -1.2698826276826782 -0.8419860193148304 -1.2760240667653004 L -0.8241430096040319 -1.2904564486094625 M -0.39574040784312964 -1.605441864786773 Q -0.38590479210874506 -1.611812874493878 -0.37239927090750374 -1.6089257028044783 Q -0.3588937497062624 -1.6060385311150789 -0.3373242206501542 -1.583067906635841 Q -0.31575469159404607 -1.5600972821566033 -0.2747998534608611 -1.5179771184674196 Q -0.23384501532767624 -1.475856954778236 -0.1863888421172914 -1.4286397369906745 Q -0.13893266890690664 -1.3814225192031127 -0.08799064445845745 -1.331518230389678 Q -0.03704862001000819 -1.2816139415762433 0.011637005167174669 -1.23519310000207 Q 0.12654698264961672 -1.1269507836208343 0.18266064448748232 -1.0789419976174912 Q 0.1965807910085962 -1.0664333440716087 0.19606871474498588 -1.0533027525459175 Q 0.1955566384813756 -1.0401721610202264 0.18777010935832117 -1.0351284450021014 Q 0.17998358023526673 -1.0300847289839767 0.17071136562438688 -1.0304781090930641 Q 0.16143915101350703 -1.0308714892021518 0.14218657130532825 -1.0498161197509643 Q 0.12293399159714952 -1.0687607502997771 0.0797484166226454 -1.1111812603734725 Q 0.036562841648141275 -1.153601770447168 -0.013040259895755801 -1.2023371573704675 Q -0.015042829644798111 -1.2045306025662676 -0.01677994065604435 -1.2063142304398018 Q -0.045443894783521954 -1.1894924882364686 -0.09626124274450873 -1.156575604749759 Q -0.15609457179534797 -1.1178186290315364 -0.1865886706586475 -1.095739036932177 Q -0.18540573555413725 -1.0930146742607847 -0.18422280044962702 -1.0902903115893925 Q -0.1311767881958169 -0.9536110358376231 -0.10032263375636818 -0.8799321435567081 Q -0.09088241135143008 -0.8563768727431805 -0.10850455620886902 -0.8449621470179506 Q -0.12694633571084002 -0.8330165038171286 -0.14272469339652627 -0.848393878618873 Q -0.14740510895467293 -0.8529251275949432 -0.151149597712568 -0.8667891412585562 Q -0.15489408647046307 -0.8806531549221693 -0.16590620686983681 -0.9133711694088226 Q -0.17691832726921058 -0.9460891838954759 -0.19201017045770719 -0.9877999210408379 Q -0.2071020136462038 -1.0295106581861997 -0.22554938270267005 -1.078647027993441 Q -0.24399675175913635 -1.1277833978006826 -0.26362705592011293 -1.1796441302793161 Q -0.2832573600810895 -1.2315048627579497 -0.30328585234876004 -1.2839803212199823 Q -0.32331434461643066 -1.336455779682015 -0.342171530995163 -1.38532669075146 Q -0.3610287173738953 -1.4341976018209055 -0.37745948346694413 -1.4770772408564024 Q -0.39389024955999286 -1.5199568798918994 -0.40330721353378707 -1.5452725201478172 Q -0.420739264501357 -1.5892488817812143 -0.39574040784312964 -1.605441864786773 M -0.20348980415062534 -1.1388957639210417 Q -0.17128185270722346 -1.157431358704477 -0.11841541813490661 -1.191675535880167 Q -0.07456496465244222 -1.2200796208243438 -0.049133032240804925 -1.238298432010089 Q -0.08189594114783158 -1.27001717484258 -0.11598614374383842 -1.303785004286401 Q -0.169063467310228 -1.3560876469567689 -0.21852221026965504 -1.4054983099401306 Q -0.29980312733825065 -1.4860735398492475 -0.3604809125785433 -1.5474154220406118 Q -0.3393789561441166 -1.49418087901071 -0.3044402709179385 -1.4016223234768077 Q -0.25730893418667966 -1.2785648610819993 -0.23256033071653998 -1.2143117672132029 Q -0.21749414995799057 -1.1757841309225903 -0.20348980415062534 -1.1388957639210417 M 0.6528255889750976 -1.4901398712224068 Q 0.6463917872246191 -1.5049129557912144 0.6501715012549668 -1.5164117374095731 Q 0.6539512152853144 -1.5279105190279316 0.6635761037165073 -1.532102238350213 Q 0.6732009921477002 -1.5362939576724945 0.6836094716179348 -1.5325719854926878 Q 0.6940179510881693 -1.5288500133128808 0.6993614506905238 -1.5141346705946144 Q 0.7342674236574502 -1.421755849370253 0.7139287037482651 -1.3473911289078073 Q 0.6944058423094692 -1.2760446093497846 0.6303891425113028 -1.2481648017643778 Q 0.5095184505846949 -1.1955246056240996 0.3953872509444193 -1.360980842821387 Q 0.35290758434182784 -1.421834647313447 0.31342743723661914 -1.512487666258403 Q 0.2739472901314105 -1.6031406852033587 0.2542372760941183 -1.6789703502917823 Q 0.23452726205682606 -1.7548000153802055 0.23454764109328696 -1.8171204633748992 Q 0.23460266474117844 -1.9502888128598705 0.32458417984209764 -1.9894765144309667 Q 0.39442057962191546 -2.019890849978683 0.45197630562098884 -1.9794498114733057 Q 0.5128824180527609 -1.9362072738906995 0.570786633807067 -1.803249512771431 Q 0.5772204355575454 -1.7884764282026233 0.5737222979924175 -1.7781654305770929 Q 0.5702241604272897 -1.7678544329515624 0.5608231066107757 -1.7637601954739854 Q 0.5402303220603166 -1.7547918657611972 0.5289224280746272 -1.78075668106395 Q 0.4567858629935052 -1.9463942959263385 0.3901184719812849 -1.955173095860547 Q 0.36644227211304603 -1.958176351639338 0.3413727952690089 -1.9472583850324654 Q 0.31630331842497167 -1.9363404184255928 0.30252339393491506 -1.9135629535221463 Q 0.2887434694448585 -1.8907854886187 0.2841193657941824 -1.8592135991047507 Q 0.27949526214350645 -1.827641709590801 0.28302328995989834 -1.788968590539076 Q 0.2865513177762902 -1.7502954714873504 0.2963504510850994 -1.7082288295026862 Q 0.31633864508153464 -1.6232002070746423 0.34977491781508174 -1.5464249342397784 Q 0.38321119054862884 -1.4696496614049146 0.408314293925338 -1.4254604967498743 Q 0.4334173973020472 -1.3812713320948342 0.45670061306072357 -1.3522669175252042 Q 0.4799838288193999 -1.3232625029555742 0.5013605441842319 -1.307807385249168 Q 0.522737259549064 -1.2923522675427621 0.5427743637318995 -1.2866990001005798 Q 0.5770071339781332 -1.2765765129276354 0.6159543569322624 -1.2935383539061696 Q 0.6593782721799697 -1.312449831778788 0.6717316329368871 -1.359903449641378 Q 0.6866697909438391 -1.4148736988397543 0.6528255889750976 -1.4901398712224068 M 0.8294693672874782 -2.1752209757724295 Q 0.840683636544683 -2.178622338233181 0.8528633296429802 -2.1721115825694697 Q 0.8650430227412771 -2.1656008269057585 0.8794159649377596 -2.1375595590085146 Q 0.8937889071342422 -2.1095182911112698 0.9214929112139506 -2.0577119680061653 Q 0.949196915293659 -2.005905644901061 0.9817384310519779 -1.9474026211884083 Q 1.0142799468102968 -1.888899597475756 1.0494278954306158 -1.826850023708771 Q 1.0845758440509348 -1.764800449941786 1.1185191434664041 -1.7067225965367276 Q 1.1989994161947697 -1.570915278316542 1.2396415468143025 -1.5092565092964427 Q 1.2495579261317966 -1.4933850785502318 1.2454332928255407 -1.4809086184752251 Q 1.2413086595192848 -1.4684321584002187 1.232430696357331 -1.4657394131187904 Q 1.2235527331953773 -1.4630466678373621 1.214751226505588 -1.4659898279910122 Q 1.2059497198157987 -1.4689329881446624 1.1926895196505052 -1.4924644127429976 Q 1.1794293194852117 -1.5159958373413327 1.1496647308312336 -1.5687079120780616 Q 1.1199001421772556 -1.6214199868147905 1.085715486801513 -1.6819758697509646 Q 1.084397884967275 -1.684637713629401 1.0832220065689016 -1.6868322962887874 Q 1.0510230733658938 -1.6785968863071419 0.9930826822036687 -1.6610231802599253 Q 0.9248625442223393 -1.6403315586236866 0.8894503240989322 -1.6275498091859077 Q 0.8898334034950699 -1.624604518435742 0.8902164828912076 -1.621659227685576 Q 0.9033802386733522 -1.475639299697073 0.9126471364951049 -1.3963002637899156 Q 0.9152024195337 -1.3710527072597087 0.8951101871145413 -1.3649585995175288 Q 0.8740834322572821 -1.3585810449036195 0.8631749888887356 -1.377723304183182 Q 0.8599308005653445 -1.3833725297232407 0.8601678953325862 -1.3977313547794281 Q 0.8604049900998277 -1.4120901798356158 0.8588740060764779 -1.446577733468186 Q 0.857343022053128 -1.4810652871007561 0.8543793529696356 -1.5253232354219244 Q 0.8514156838861433 -1.5695811837430926 0.8472817311585097 -1.6219032507682507 Q 0.8431477784308762 -1.674225317793409 0.838630746307105 -1.729492675568733 Q 0.8341137141833338 -1.784760033344057 0.8293840969057655 -1.8407282829479563 Q 0.8246544796281974 -1.8966965325518559 0.8200532656815136 -1.9488768761411492 Q 0.8154520517348299 -2.0010572197304426 0.8115250894067612 -2.046808858882422 Q 0.8075981270786924 -2.0925604980344015 0.8055521961706037 -2.119493285093488 Q 0.8009664329254159 -2.166575846184686 0.8294693672874782 -2.1752209757724295 M 0.8851480077254736 -1.673697847839005 Q 0.9212267541167477 -1.6825997840885174 0.9815034513742238 -1.7008821073150573 Q 1.0315004018125955 -1.7160465149525748 1.0609799495242145 -1.7265185985050628 Q 1.038270631260477 -1.7660631772854738 1.0148526958174164 -1.8079440621611353 Q 0.9783162836449271 -1.872889110416082 0.9444571660523701 -1.934053978007171 Q 0.8886394382868553 -2.033970625376435 0.8472998799964637 -2.1097047725809923 Q 0.8528510670827437 -2.052710093365332 0.8608200749647855 -1.9540982642512124 Q 0.8720684337662417 -1.8228047900135387 0.8780756925631074 -1.7542127621445358 Q 0.8818952970160199 -1.71302078255367 0.8851480077254736 -1.673697847839005 M 1.3829249688968437 -1.7343559382434162 Q 1.4065057861905739 -1.6259830873657788 1.4234283433679693 -1.5461780544692325 Q 1.4268650230749425 -1.5299287612965378 1.4196510527394608 -1.5204358318336113 Q 1.4124370824039791 -1.5109429023706848 1.4025872904633039 -1.5091604864279708 Q 1.3927374985226286 -1.5073780704852568 1.3839424145132369 -1.5134777938007886 Q 1.3751473305038449 -1.5195775171163204 1.3724519698099849 -1.534472324441244 L 1.3070677362040877 -1.89579152148455 Q 1.2731583597329443 -2.0831778071852005 1.2370756773371319 -2.2304738851704573 Q 1.2318085711273055 -2.2513540606612654 1.243303366803993 -2.261869753024424 Q 1.2479799911819651 -2.2661895149246476 1.2536153023709424 -2.267953596837993 Q 1.2592506135599195 -2.2697176787513387 1.2779068320113887 -2.2790482425044787 Q 1.3248745640870396 -2.3019376477912648 1.373643046134773 -2.310762780385678 Q 1.4224115281825065 -2.319587912980091 1.4563196024637732 -2.314559149152056 Q 1.49022767674504 -2.309530385324021 1.5168096940414584 -2.2915149277648257 Q 1.573378277283092 -2.2531228294275194 1.5899851770420366 -2.161351597199765 Q 1.6113741683546041 -2.043154093911662 1.5380723934468237 -1.9162569696530702 Q 1.5263946295307007 -1.8957839357004305 1.5127080078728505 -1.8754435909268061 Q 1.585878953872868 -1.739821111911362 1.6764295055946183 -1.6013891030795362 Q 1.692656113764509 -1.5775300405345933 1.6717668642725791 -1.5613446374240008 Q 1.6665228151198077 -1.5574184060602632 1.6588351726295245 -1.5560272521537548 Q 1.6415379770263874 -1.5528971558641107 1.630765980306319 -1.5712925329581096 Q 1.6073046132441726 -1.6131946471198633 1.587378215509558 -1.6520148615792374 Q 1.5674518177749435 -1.6908350760386115 1.548397159732177 -1.7275800881667502 Q 1.5145618634870088 -1.7939041526476853 1.4867807345246389 -1.8404828911874112 Q 1.4423620629621499 -1.7843123754828243 1.3829249688968437 -1.7343559382434162 M 1.3732235596100217 -1.7797404741720015 Q 1.4411398942391438 -1.8376820633179005 1.4937081658910647 -1.9255962353530816 Q 1.5639029015662558 -2.044984148360265 1.5451223238283918 -2.148767321979087 Q 1.5256461691372734 -2.2563943168430503 1.4445596144561799 -2.273974666752211 Q 1.400108439781264 -2.2837944101078653 1.338465536678862 -2.259738024213304 Q 1.3092388098032535 -2.2484946238387145 1.2917586459606814 -2.2354071859595894 Q 1.3116835193035166 -2.0896530990621005 1.3294207316114992 -1.9916356573109906 Q 1.3482882564685201 -1.887372006036526 1.3499631227624282 -1.879487598278 Q 1.3516379890563366 -1.8716031905194739 1.3530520139927744 -1.865160215727876 Q 1.3544660389292122 -1.858717240936278 1.356207249812628 -1.8518372620486157 Q 1.3579484606960441 -1.8449572831609533 1.361016749396741 -1.8321148071373359 Q 1.3640850380974383 -1.8192723311137182 1.3687847195324652 -1.7987856861593958 Q 1.3708302453329297 -1.7902240354769843 1.3732235596100217 -1.7797404741720015 M 1.7949901265365449 -2.3668805651870195 Q 1.8246943008895329 -2.369075458998621 1.8278247232109972 -2.3267104890197694 Q 1.8320705833711441 -2.269249955025465 1.8360357863364638 -2.2056485272585413 Q 1.8400009893017835 -2.142047099491618 1.8433281133948451 -2.090394027766563 Q 1.8466552374879068 -2.038740956041509 1.851241726882707 -1.97004450558933 Q 1.860810506195711 -1.8272951142278764 1.875164873655321 -1.6197808837033505 Q 1.9722125830240262 -1.6249934602787066 2.0606774324992387 -1.640343307916032 Q 2.078063837441225 -1.6435864697952058 2.088486566449097 -1.635053987230046 Q 2.098909295456969 -1.6265215046648864 2.099664914638012 -1.6162954774286118 Q 2.1004205338190554 -1.6060694501923372 2.0922130865358755 -1.5978739946008595 Q 2.0840056392526956 -1.589678539009382 2.0668902967940435 -1.589393081063479 Q 2.0110537407195346 -1.5896737314676483 1.947199241402159 -1.5825073477300988 Q 1.8833447420847835 -1.5753409639925493 1.8703409202440577 -1.572421638905251 Q 1.8573370984033322 -1.569502313817953 1.8511602227649493 -1.570269924690698 Q 1.8449833471265664 -1.5710375355634432 1.8398259554212764 -1.5745733463291463 Q 1.8285012827890967 -1.5820599578069423 1.8282877885747217 -1.5982013929097587 Q 1.8257114761209698 -1.7125803359316998 1.8121283217950759 -1.8964053493456827 Q 1.798545167469182 -2.0802303627596657 1.7950813136443489 -2.1237947260004297 Q 1.7916174598195156 -2.1673590892411942 1.787944912531383 -2.203808651353504 Q 1.7806357998208822 -2.2762208219002056 1.7700235599820393 -2.3337005453174964 Q 1.7674112792438392 -2.3491751174135755 1.775600735594137 -2.357614049844012 Q 1.7837901919444348 -2.3660529822744487 1.7949901265365449 -2.3668805651870195 M 2.3904019567851287 -2.381887090870418 Q 2.4021145057661224 -2.3815059112141954 2.411557313536765 -2.3714278040165144 Q 2.4210001213074075 -2.361349696818834 2.425603846520377 -2.3301775957213473 Q 2.4302075717333467 -2.2990054946238607 2.4398019759674736 -2.2410455570539223 Q 2.4493963802016006 -2.183085619483984 2.4614207904730567 -2.1172299622554984 Q 2.473445200744513 -2.0513743050270126 2.4867986785103477 -1.9813228059107308 Q 2.500152156276182 -1.9112713067944487 2.5136406351702627 -1.8453680021089354 Q 2.5462312959820346 -1.6909058682105496 2.564913319149968 -1.6194596045663119 Q 2.5692058959220385 -1.6012439333638533 2.561292126686942 -1.5907536086592529 Q 2.553378357451846 -1.5802632839546524 2.5441059228418923 -1.5805650511824956 Q 2.5348334882319388 -1.5808668184103387 2.5274438410241493 -1.586481248554605 Q 2.5200541938163594 -1.5920956786988711 2.515055573552364 -1.618639503734219 Q 2.5100569532883688 -1.6451833287695667 2.4988021164515417 -1.7046629236619952 Q 2.4875472796147142 -1.764142518554424 2.4746262360232216 -1.8324700551253017 Q 2.4742335080630693 -1.8354140748562262 2.473824897617241 -1.8378700717129424 Q 2.4406869896281194 -1.8404141493615318 2.3801721532263174 -1.8423835775853503 Q 2.308920813591938 -1.84470242049404 2.271279522335212 -1.8439732803942563 Q 2.270696204546948 -1.841061025634684 2.2701128867586844 -1.8381487708751114 Q 2.23567404064326 -1.6956388774841693 2.2189642970973966 -1.617527786821271 Q 2.213274061585842 -1.5927974450934186 2.1922890779948947 -1.5934803919774847 Q 2.170328048655531 -1.5941951038329027 2.1661466492831924 -1.6158269351548178 Q 2.1648890529743556 -1.6222188799765507 2.169725968441155 -1.6357405780832934 Q 2.1745628839079547 -1.649262276190036 2.184191234475399 -1.6824138995739601 Q 2.1938195850428435 -1.7155655229578846 2.2052296539464313 -1.7584299563689425 Q 2.216639722850019 -1.8012943897800004 2.2295319099527804 -1.852171494401302 Q 2.2424240970555416 -1.9030485990226031 2.2558996019465667 -1.9568379584034772 Q 2.269375106837592 -2.010627317784351 2.282874435457131 -2.065148711476537 Q 2.29637376407667 -2.1196701051687232 2.3087779283052234 -2.1705630922757004 Q 2.3211820925337765 -2.221456079382678 2.332159727263022 -2.26604447533914 Q 2.3431373619922677 -2.3106328712956024 2.349851290709266 -2.336795516674727 Q 2.3606325614584356 -2.3828559224966517 2.3904019567851287 -2.381887090870418 M 2.2820290281130293 -1.8890576404677648 Q 2.3190552366101396 -1.8858984800595597 2.3820101873829818 -1.8838496394073612 Q 2.4342286349232465 -1.8821502134400339 2.4655097463295914 -1.8825978029793968 Q 2.456706572167734 -1.9273414167315273 2.4479828104342563 -1.974525144854698 Q 2.434244545951107 -2.0477646751390086 2.4218274077194986 -2.1165643520984183 Q 2.4010633532288885 -2.2291157145758667 2.386242199779338 -2.314115441298199 Q 2.3731911878198173 -2.258358107934817 2.3490614720650305 -2.162412525725683 Q 2.3175392148909255 -2.0344639061326033 2.301194768515609 -1.967577341576491 Q 2.2915801333429675 -1.9273414452737119 2.2820290281130293 -1.8890576404677648 M 2.9118457301769896 -1.765666329953902 Q 2.9286187805938093 -1.7623910377357594 2.9304051967041387 -1.7486096094152617 Q 2.9321916128144685 -1.7348281810947639 2.926389666599473 -1.7051159203563968 Q 2.9205877203844777 -1.6754036596180297 2.9236813225932274 -1.6479343827546953 Q 2.926774924801977 -1.6204651058913606 2.9376893733857865 -1.5999262021208858 Q 2.9599975005653145 -1.5587548148022747 3.011754341851502 -1.5486481988148635 Q 3.06351118313769 -1.5385415828274522 3.101621496223942 -1.5706512630039113 Q 3.139731809310194 -1.6027609431803707 3.153675196181715 -1.6741662149548333 Q 3.172297571936297 -1.7695329873247534 3.10581256546114 -1.8596286215954163 Q 3.0869270351065943 -1.885206571447157 3.066749849944615 -1.910539240731142 Q 3.0465726647826354 -1.9358719100151265 3.0278742939834125 -1.9624083198906856 Q 3.0091759231841895 -1.9889447297662448 2.99620565028067 -2.0193376419842832 Q 2.9679398719445405 -2.0860500549949887 2.982631897037351 -2.1612891668647247 Q 2.997698241240807 -2.238445198782097 3.052489490360636 -2.276998891083287 Q 3.106707929690895 -2.315166933150229 3.174758591381994 -2.3018786047223365 Q 3.2332246528349096 -2.290461871847668 3.2629310519956034 -2.2438657882135433 Q 3.2958275639315446 -2.190676726437558 3.2769387107564185 -2.111779602904268 Q 3.2757108425232198 -2.108039342586656 3.2751082395302236 -2.103679482590643 Q 3.274505636537227 -2.0993196225946305 3.270968067065924 -2.0875728217410545 Q 3.2674304975946207 -2.075826020887479 3.2567399367099075 -2.068212261541983 Q 3.2460493758251947 -2.0605985021964877 3.235745930569148 -2.062610467416204 Q 3.2254424853131014 -2.06462243263592 3.220078840798858 -2.075371114533066 Q 3.2147151962846143 -2.086119796430213 3.2201058992293192 -2.1009872579229993 Q 3.233167213153407 -2.1347545116827713 3.2366764548157025 -2.152725637129364 Q 3.2401856964779983 -2.1706967625759575 3.236897803757706 -2.1882539099792946 Q 3.233609911037414 -2.2058110573826317 3.224062234958877 -2.2206105321338 Q 3.2033307020871495 -2.252021490782509 3.1621169210629634 -2.2600693516613735 Q 3.1165900699315943 -2.268959430539189 3.081753583669067 -2.243424266424767 Q 3.0433866588914555 -2.215095970892949 3.0335607822370276 -2.164776819642489 Q 3.0237349055826 -2.1144576683920286 3.028721300197362 -2.081394997737681 Q 3.033707694812124 -2.0483323270833327 3.0468126718203337 -2.0199031248017616 Q 3.0599176488285433 -1.9914739225201905 3.07889675896075 -1.966375202680359 Q 3.097875869092957 -1.9412764828405273 3.1176674040206884 -1.9165166233461128 Q 3.13745893894842 -1.8917567638516986 3.156297679414135 -1.8659391989940033 Q 3.1751364198798497 -1.8401216341363078 3.188293852338692 -1.8106871819420878 Q 3.2166532104524825 -1.7444539989432912 3.201774025804349 -1.6682564270497369 Q 3.1843681871593628 -1.5791196448346358 3.12797475069569 -1.5349087721681975 Q 3.0721541240215875 -1.4910835497360069 2.995956552128033 -1.5059627343841404 Q 2.9250305103654797 -1.5198125414780004 2.8911302139113078 -1.583147682158136 Q 2.858971009073053 -1.6426603138666016 2.8715106992796557 -1.706877135462427 Q 2.884050389486259 -1.7710939570582527 2.9118457301769896 -1.765666329953902 M 3.3935538543748147 -1.6905275727184144 L 3.457894439789568 -1.8867958602303472 Q 3.511861406083935 -2.0540878636272373 3.5386503657935555 -2.17371075549944 Q 3.5420533294358587 -2.1890308805205057 3.553206207330591 -2.1933854741123358 Q 3.5643590852253233 -2.197740067704166 3.5757442354565003 -2.194067315831355 Q 3.587129385687678 -2.190394563958544 3.5940998081609417 -2.180193549018157 Q 3.601070230634206 -2.1699925340777706 3.5922706480307394 -2.145895600061804 Q 3.5834710654272723 -2.1217986660458372 3.5702417021073036 -2.0847650858855213 Q 3.5570123387873345 -2.0477315057252055 3.5425911971948714 -2.006208321355396 Q 3.5137489140099443 -1.9231619526157773 3.491862311012784 -1.8553157512381495 Q 3.469975708015624 -1.7874695498605218 3.4621879671960403 -1.7625331452358528 Q 3.4544002263764564 -1.7375967406111839 3.4473695144005636 -1.714211831899687 Q 3.4098174226857934 -1.5898520881912297 3.4107914379025215 -1.553110681528623 Q 3.41176545311925 -1.5163692748660165 3.4214040403217814 -1.4937637025971389 Q 3.440681214726845 -1.4485525580593837 3.489010015708169 -1.4329621011298996 Q 3.5387329167178 -1.416921919481296 3.583104668315126 -1.4431396434472645 Q 3.628855544650443 -1.470451650962127 3.65646845600054 -1.5369636534727116 Q 3.6885636392515173 -1.6189606645343844 3.704903637379534 -1.6696129655628873 Q 3.721243635507551 -1.7202652665913902 3.7329289905595053 -1.75728387146139 Q 3.7446143456114607 -1.79430247633139 3.7585258613235397 -1.8406075937449478 Q 3.797981834283547 -1.9756404623801127 3.8285932211008666 -2.083256030458565 Q 3.832925584762041 -2.0982763390002175 3.843538808527484 -2.102548490827036 Q 3.8541520322929275 -2.1068206426538545 3.864840132509951 -2.1033727531406035 Q 3.8755282327269747 -2.0999248636273524 3.882108909310656 -2.0901061069313904 Q 3.8886895858943378 -2.0802873502354284 3.8834278222142915 -2.065566858173189 Q 3.859232694460269 -1.9969261897260802 3.837263649698097 -1.9296196424777416 Q 3.815294604935926 -1.862313095229403 3.7933930266484497 -1.7960109021197892 Q 3.740445467451396 -1.6350598153249776 3.712622669032056 -1.5663067545322253 Q 3.684799870612716 -1.4975536937394731 3.662801185943004 -1.465144728406314 Q 3.640802501273292 -1.4327357630731548 3.612290606494594 -1.4111499085746826 Q 3.548521101486947 -1.3629714818427028 3.4746337999866537 -1.3868068919560483 Q 3.352417697505037 -1.4262327589988777 3.3658354946463227 -1.5712044973256247 Q 3.369718444261469 -1.6166402712181211 3.3865081671086057 -1.6686866722749314 L 3.3935538543748147 -1.6905275727184144 M 3.9477559988248823 -1.462658478889155 Q 3.904669416087457 -1.3604612375389213 3.8725791252764177 -1.2854583745755388 Q 3.8660378151356984 -1.2701920207979194 3.854674950178357 -1.2665805975673183 Q 3.8433120852210156 -1.262969174336717 3.8342312280687976 -1.26718028360251 Q 3.82515037091658 -1.2713913928683027 3.8214683664170876 -1.2814414162575303 Q 3.817786361917596 -1.2914914396467578 3.824154380807331 -1.3052234675354775 L 3.9786301938744617 -1.6383358859973218 Q 4.058743979906617 -1.8110936562102462 4.1140077646141116 -1.9523169144169579 Q 4.121717337113537 -1.9724237945386636 4.137169629827116 -1.9744079224123854 Q 4.143480224633699 -1.9752490832973515 4.149103978278835 -1.9734484966894887 Q 4.1547277319239715 -1.971647910081626 4.175354485798628 -1.9685413152488995 Q 4.226937434841868 -1.9602291495434196 4.271898751961386 -1.9393790231786405 Q 4.316860069080903 -1.9185288968138616 4.341695534551252 -1.8949016747601972 Q 4.366531000021601 -1.8712744527065328 4.377901207822955 -1.8412431568775434 Q 4.402066915489984 -1.777290233585025 4.362831702330646 -1.692683223044849 Q 4.312298391141132 -1.5837129372182353 4.179321302877874 -1.5221245913502313 Q 4.157988736314309 -1.5121027705018173 4.135089715148642 -1.5033455981517152 Q 4.116874652767154 -1.3503238491901033 4.111255484628882 -1.1850021977473417 Q 4.11079405396061 -1.1561518119620349 4.084396060060547 -1.1549377542036257 Q 4.0778479165765775 -1.1547449819244162 4.070760418311432 -1.1580317013513763 Q 4.054813547214854 -1.165426820062037 4.056591236122866 -1.1866698338292478 Q 4.061520296261781 -1.2344393563493272 4.067566518518738 -1.2776540942725094 Q 4.073612740775696 -1.3208688321956918 4.079177541835391 -1.3618847912676169 Q 4.089678236377253 -1.4355966913612113 4.093766135631202 -1.4896768086878733 Q 4.02511384853238 -1.4693050465157795 3.9477559988248823 -1.462658478889155 M 3.9659419894977437 -1.5053567597310122 Q 4.0548296715710785 -1.5136535204143673 4.148415698449192 -1.5552946107251484 Q 4.274530189439716 -1.612530175288815 4.318900901703679 -1.708211401868281 Q 4.364914973681122 -1.8074363775803197 4.308721194626407 -1.8684802736595212 Q 4.278021010161909 -1.90209326167601 4.213765261764076 -1.9178969322317552 Q 4.183393197774845 -1.925522766276552 4.161566052828281 -1.9248801920125205 Q 4.093976051268161 -1.7942170904338737 4.052070378574418 -1.7038514875532669 Q 4.007494246346269 -1.6077272923322292 4.004326301258002 -1.6003155997642056 Q 4.001158356169736 -1.5929039071961815 3.9986066709740236 -1.5868211205528724 Q 3.996054985778312 -1.5807383339095633 3.9935193649392007 -1.57410986864259 Q 3.9909837441000895 -1.5674814033756168 3.9861018580294516 -1.555213120106906 Q 3.9812199719588137 -1.5429448368381953 3.973272850782001 -1.5234863453222462 Q 3.9700182600682425 -1.5153074898097725 3.9659419894977437 -1.5053567597310122 M 4.33825739920863 -1.2574141560612924 L 4.456184459335363 -1.4593954525124406 Q 4.53920116281879 -1.6009042184917777 4.603709597546442 -1.7340234095910692 Q 4.6135644349238705 -1.7537166970301183 4.6302534160447735 -1.751285385858278 Q 4.639810830971843 -1.7502073187902214 4.648930305881279 -1.7425929260892703 Q 4.664889386972791 -1.7292677388626059 4.690158809469102 -1.7144433275262796 Q 4.7154282319654115 -1.6996189161899533 4.72713358737069 -1.693034972848273 Q 4.738838942775968 -1.6864510295065926 4.750878413463185 -1.6799541279245789 Q 4.781100626942363 -1.663922452490347 4.792581352070111 -1.6588855487972238 Q 4.80406207719786 -1.6538486451041008 4.808759403170441 -1.6488285243870067 Q 4.813456729143022 -1.6438084036699125 4.815691711380897 -1.63796841211435 Q 4.8196675288121025 -1.625446114920015 4.8141083745609805 -1.6159700814838986 Q 4.808549220309858 -1.6064940480477823 4.797262290726883 -1.6046240158246028 Q 4.785975361143908 -1.602753983601423 4.773079524616754 -1.6111685351154021 Q 4.760183688089599 -1.6195830866293812 4.7447974043142835 -1.6300247730797341 Q 4.729411120538967 -1.6404664595300869 4.711127284230612 -1.6517588515516648 Q 4.673122056969753 -1.675753086725514 4.645179712217933 -1.689881163984508 L 4.602435992864859 -1.6170209957868136 Q 4.577234493593104 -1.5740629775430863 4.550623543190656 -1.5296674046552106 Q 4.480280579346045 -1.4107270354032195 4.447419800883855 -1.3547131488697322 Q 4.505118315583764 -1.3208640763184538 4.539945153007143 -1.304961597914071 Q 4.577124849160821 -1.2882449089399328 4.564277026002673 -1.266344742776464 Q 4.551923349889067 -1.2452868906962056 4.5032432165822005 -1.2732791887158923 Q 4.490782588853378 -1.2800231638201782 4.48362291914609 -1.284223413698804 L 4.450177429339949 -1.3044104525221776 L 4.426171477968454 -1.3184936432916876 L 4.2854238808137195 -1.0698931122522146 Q 4.278999969234645 -1.0589430291704802 4.268990562533213 -1.054908273493063 Q 4.258981155831782 -1.050873517815646 4.252242643166099 -1.0548266941719997 Q 4.245504130500416 -1.0587798705283533 4.241910243890045 -1.0623034983550874 Q 4.238316357279674 -1.0658271261818213 4.236255458561132 -1.0709988871735063 Q 4.231858484088321 -1.0837682578901138 4.2403600773619665 -1.0963299791353298 Q 4.2713004746728895 -1.1432805977862917 4.33825739920863 -1.2574141560612924 M 4.779306966823015 -0.9799199431475023 Q 4.792684015204752 -0.9692842797459057 4.787919173021682 -0.9562299575481545 Q 4.783154330838611 -0.9431756353504035 4.7643140128129255 -0.9194791496456107 Q 4.745473694787241 -0.895782663940818 4.735561809038765 -0.8699778956425042 Q 4.725649923290288 -0.8441731273441904 4.725872549164376 -0.8209153932821277 Q 4.726700002294886 -0.7740960490608138 4.767977751587106 -0.7412774305644588 Q 4.809255500879325 -0.7084588120681039 4.857874539075272 -0.7193957517437033 Q 4.9064935772712195 -0.7303326914193028 4.951771115752302 -0.7872806973872725 Q 5.012242459092807 -0.8633387724720104 4.994751220542343 -0.9739350471588439 Q 4.989776102466538 -1.0053379606466466 4.983541604837707 -1.0371183629950853 Q 4.977307107208875 -1.0688987653435238 4.972939741327448 -1.1010660815959974 Q 4.968572375446019 -1.1332333978484708 4.97106578435983 -1.1661839669524132 Q 4.976719829580176 -1.2384164530463064 5.024428376838767 -1.298422070072959 Q 5.0733524284861105 -1.3599564926289531 5.139745293429629 -1.3689262002472495 Q 5.2054520808936235 -1.377817582580399 5.259724677185246 -1.334667176779636 Q 5.30635324583016 -1.2975942929226427 5.311247113682864 -1.2425514439904417 Q 5.315934280810325 -1.1801872935955202 5.262815439000691 -1.1188689968081689 Q 5.260002228840848 -1.1161152618466743 5.25745844465732 -1.1125235113570617 Q 5.254914660473791 -1.1089317608674492 5.246362254588241 -1.1001364165520362 Q 5.237809848702691 -1.0913410722366232 5.224813539234311 -1.0895098530790703 Q 5.2118172297659315 -1.0876786339215174 5.203599900045721 -1.0942119700110695 Q 5.195382570325511 -1.1007453061006216 5.195575133485655 -1.1127563745139883 Q 5.1957676966458 -1.124767442927355 5.207402738667508 -1.1354785066761446 Q 5.2345543117326265 -1.159428818323176 5.245949665377194 -1.1737613701607523 Q 5.257345019021762 -1.1880939219983286 5.2625170876646425 -1.2051910963097754 Q 5.267689156307522 -1.2222882706212221 5.266034900276039 -1.2398224089916536 Q 5.262109210975295 -1.2772527942682763 5.229239892094453 -1.3033861386264847 Q 5.192930760772594 -1.3322543678593894 5.150246731515221 -1.325643843838899 Q 5.103142361283517 -1.318181166725192 5.0712353710787275 -1.2780500215799782 Q 5.039328380873938 -1.2379188764347648 5.028519004398995 -1.206277737038799 Q 5.017709627924052 -1.1746365976428328 5.016240622707827 -1.1433667721168261 Q 5.014771617491603 -1.1120969465908193 5.020050611664597 -1.081076234485352 Q 5.02532960583759 -1.0500555223798846 5.031485778181275 -1.0189611975109698 Q 5.03764195052496 -0.9878668726420551 5.04246513055217 -0.9562728584630846 Q 5.047288310579381 -0.9246788442841142 5.045402653859947 -0.8924926779448424 Q 5.040052484736789 -0.8206423932332846 4.9917361852838225 -0.7598723734419612 Q 4.935215231206766 -0.6887829163275832 4.864793651714651 -0.6755306682184508 Q 4.795058149702059 -0.6623567453944652 4.734288129910736 -0.7106730448474322 Q 4.677722325325101 -0.755646707231326 4.6768194718473985 -0.8274781418560856 Q 4.675700492601052 -0.8951147863185553 4.716419889624308 -0.9463297715514944 Q 4.757139286647563 -0.9975447567844336 4.779306966823015 -0.9799199431475023 M 5.570398155580579 -0.7016176655658648 L 5.6247298961856345 -0.7563915808001762 Q 5.6378798733285 -0.7694818263809418 5.6527608965633505 -0.7846397387844875 Q 5.6676419197982 -0.7997976511880331 5.684945307243578 -0.8173669246196146 Q 5.702248694688956 -0.834936198051196 5.718341685970676 -0.8516450570572285 Q 5.734434677252397 -0.8683539160632607 5.745826100347049 -0.8672921817248369 Q 5.7572175234417005 -0.8662304473864131 5.764107126378946 -0.8593094067849045 Q 5.770996729316191 -0.852388366183396 5.771489871288287 -0.8415113054842176 Q 5.771983013260382 -0.8306342447850393 5.760564868151106 -0.8199569321155227 Q 5.562994309109449 -0.6343072830881795 5.45398791963569 -0.5257960368265701 Q 5.278539540387449 -0.3511446023674082 5.239770709836509 -0.3077291006802722 Q 5.22938600516782 -0.2960136319205293 5.218165250263385 -0.2962118080669778 Q 5.206944495358951 -0.29640998421342635 5.2002271324951375 -0.30315799879989713 Q 5.193509769631324 -0.3099060133863679 5.193534133821128 -0.32060926212890195 Q 5.193558498010932 -0.331312510871436 5.204976643120208 -0.34198982354095264 Q 5.320205681602472 -0.4539395837383319 5.402562920993997 -0.5345447943376725 Q 5.374672604163861 -0.5680992661892835 5.321622661547074 -0.6213912788208991 Q 5.266505838049113 -0.6767596036329673 5.236866398470041 -0.7003052886270149 Q 5.132703165534124 -0.5959262322445392 5.046180726715988 -0.5056630024673501 Q 5.035105489870362 -0.4939491055908204 5.023021962715559 -0.49432187963551977 Q 5.010938435560757 -0.49469465368021914 5.00387659255008 -0.5017887202967654 Q 4.9968147495394035 -0.5088827869133116 4.996666873655777 -0.5197590616708834 Q 4.99651899777215 -0.5306353364284551 5.016240819720023 -0.5488896404457281 Q 5.035962641667896 -0.5671439444630011 5.07229496105939 -0.6019332955296622 Q 5.108627280450882 -0.6367226465963234 5.149458276233356 -0.6759902395721937 Q 5.21762738239179 -0.7424717641501821 5.288221996527176 -0.8127457141100816 Q 5.358816610662563 -0.883019664069981 5.38753971510043 -0.9119567823480168 Q 5.416262819538297 -0.9408939006260526 5.439795929466639 -0.9650090827896234 Q 5.476136108274199 -1.003251094740973 5.522175175223149 -1.0552817438660915 Q 5.532559879891838 -1.0669972126258345 5.544124329001527 -1.0661077183608416 Q 5.555688778111217 -1.065218224095849 5.563267341342186 -1.0576050794341896 Q 5.570845904573156 -1.0499919347725302 5.571682740750508 -1.0384235559548076 Q 5.572519576927859 -1.026855177137085 5.555739197235628 -1.0115289543681412 Q 5.538958817543396 -0.9962027315991973 5.515430423264693 -0.9741591459664394 Q 5.49190202898599 -0.9521155603336817 5.464046412448131 -0.925075440688208 Q 5.436190795910273 -0.8980353210427344 5.402623748992957 -0.8646207467970959 Q 5.370788534109231 -0.8336191054627065 5.269741341327206 -0.7330309025789288 Q 5.28901651071936 -0.7067466671253282 5.3486115761265305 -0.6468796659222794 Q 5.405795280505664 -0.5894350289297587 5.435091811821088 -0.5669259281427242 Q 5.448241788963953 -0.5800161737234899 5.460353610016593 -0.5920729788636687 L 5.570398155580579 -0.7016176655658648 M 5.423409718381237 -0.020292590155721324 Q 5.361041081983052 -0.10106706104576393 5.415127086897061 -0.20359295025474558 Q 5.469213091811071 -0.3061188394637272 5.6323079564790035 -0.4320497703729812 Q 5.761006036892326 -0.5314218082705678 5.882071521744692 -0.555191170066812 Q 5.941295614740878 -0.5663738477412519 5.990483264287063 -0.555001541582772 Q 6.039670913833247 -0.5436292354242922 6.07085523203234 -0.5032419999792709 Q 6.102039550231432 -0.46285476453424956 6.104252684085744 -0.4164456764331759 Q 6.106465817940055 -0.3700365883321022 6.081877444517247 -0.3195893751052829 Q 6.033649791503036 -0.22066156820845206 5.885065061882175 -0.10470059887122957 Q 5.7287507178220745 0.017228661030412595 5.606193160328603 0.03906561921684698 Q 5.485778354779422 0.060481880734321314 5.423409718381237 -0.020292590155721324 M 6.057224894457348 -0.42701809602436047 Q 6.054600592928839 -0.45398591853909 6.037590964820243 -0.47601531969091976 Q 6.020581336711647 -0.49804472084274953 5.995453087115605 -0.5070196054704793 Q 5.970324837519563 -0.515994490098209 5.939037295169256 -0.5149699617042901 Q 5.907749752818949 -0.5139454333103713 5.871998047866335 -0.5039219096467071 Q 5.8362463429137215 -0.49389838598304286 5.798973113870386 -0.4774564236363819 Q 5.723179147424088 -0.4429923601082142 5.659216587939389 -0.39360475568764186 Q 5.595254028454691 -0.3442171512670695 5.555698369197717 -0.30596371508179554 Q 5.516142709940744 -0.2677102788965216 5.491209650721708 -0.23488691896334926 Q 5.466276591502672 -0.20206355903017692 5.454315035266488 -0.17401230522229472 Q 5.442353479030302 -0.14596105141441248 5.440044123693293 -0.12258654671445271 Q 5.436638705431903 -0.07985884262188961 5.463496012971792 -0.04507557764531622 Q 5.542874277478573 0.05772829439655619 5.748872978626551 -0.06616700875167375 Q 5.796038208353159 -0.09456518652691856 5.840869972100743 -0.12918127180055236 Q 5.8857017358483255 -0.16379735707418613 5.9172366569614665 -0.192464786083145 Q 5.9487715780746075 -0.2211322150921038 5.975257851005117 -0.25114503580430264 Q 6.0017441239356275 -0.2811578565165015 6.021486618531548 -0.3115156511800373 Q 6.041229113127469 -0.3418734458435732 6.050539154556663 -0.3709618596766021 Q 6.059849195985858 -0.400050273509631 6.057224894457348 -0.42701809602436047 M 5.850700013816655 0.19561531823677053 Q 5.751742083765113 0.25941325207302024 5.698283192282647 0.2936949615628912 Q 5.684290059971499 0.30264161144668733 5.672988293493495 0.2994486155984388 Q 5.661686527015492 0.2962556197501903 5.656544819360672 0.2876673573962684 Q 5.651403111705851 0.2790790950423465 5.653883635803835 0.26848842839295783 Q 5.656364159901818 0.25789776174356915 5.6706081072205174 0.24937005148679367 L 5.765288462927169 0.19268585977999186 L 5.894908932295996 0.11451426781178298 L 6.011374148607717 0.04478769571226571 Q 6.125325727157315 -0.023433986341938245 6.1551985920228525 -0.04387952522239516 Q 6.185071456888391 -0.0643250641028521 6.200489532700068 -0.07469391364387756 Q 6.2159076085117455 -0.08506276318490313 6.231703278756402 -0.09622677486427761 Q 6.247498949001058 -0.10739078654365203 6.2627916173089595 -0.11796910589818788 Q 6.2780842856168615 -0.12854742525272367 6.285830552951791 -0.12891678815580043 Q 6.29357682028672 -0.1292861510588772 6.299058892945428 -0.12630811271074027 Q 6.3045409656041365 -0.12333007436260324 6.308388624948805 -0.11880442885346076 Q 6.312236284293473 -0.11427878334431824 6.326207465858215 -0.10044828796603783 Q 6.369625900597756 -0.05644316406907321 6.393453326315217 -0.01664389950211817 Q 6.417280752032678 0.02315536506483687 6.42377999148263 0.05682494062944837 Q 6.430279230932583 0.0904945161940599 6.421539494563529 0.12247461403408588 Q 6.4034702137356305 0.1902025225140226 6.3234527449747 0.23810818895649666 Q 6.21452844194935 0.30332009092007395 6.07797021151138 0.28149993544116036 Q 5.967785970672602 0.2638084365907738 5.850700013816655 0.19561531823677053 M 5.889746833360953 0.17053107363824782 Q 6.120652664288068 0.3071653815105059 6.296607307636711 0.20182307833857333 Q 6.393382361478465 0.14388481159401045 6.380901975653468 0.06030068077227119 Q 6.371583031478762 -0.0018430702132365417 6.304645981827691 -0.05851553636870621 Q 6.296697104287502 -0.0651386238562523 6.289249856762418 -0.07092383208975717 Q 6.214179716980952 -0.02996378315726264 6.136675885982144 0.016436993239898084 L 6.0101561186219294 0.09218312552066865 Q 6.002196265708538 0.09694861066416086 5.99490616742972 0.10188222042712139 Q 5.987616069150902 0.10681583019008195 5.979153214300756 0.11216700765841277 Q 5.97069035945061 0.11751818512674356 5.957451044083769 0.12629808231272158 Q 5.94421172871693 0.1350779794986996 5.924185317008026 0.1482057941227996 Q 5.909773245069857 0.15740325901414787 5.889746833360953 0.17053107363824782" fill="#d31b45" fill-rule="nonzero"></path></g><g><path d=" M -1.8944230535704931 2.890410620707152 Q -1.882167747608159 2.878002982430514 -1.8728620389622095 2.861942770295687 Q -1.8635563303162597 2.8458825581608607 -1.8572002189866945 2.8261697721678454 Q -1.8508441076571294 2.8064569861748305 -1.8477422181494987 2.784269121058837 Q -1.844640328641868 2.762081255942843 -1.846327504440644 2.7375237601912943 Q -1.8512308591058368 2.6661535381633557 -1.8807678355566724 2.6346424030278612 Q -1.910304812007508 2.6031312678923664 -1.957117538283898 2.6063474467587833 Q -1.9893492514578057 2.6085618649946767 -2.0066865262753764 2.6255593925595946 Q -2.024023801092947 2.6425569201245125 -2.0332152605031686 2.6771143404385684 Q -2.0424067199133904 2.7116717607526244 -2.051100219216766 2.7647000271240536 Q -2.0593719245704474 2.82386766743337 -2.073355369495491 2.867235796618003 Q -2.0873388144205345 2.910603925802636 -2.1145354024430283 2.9356037372089037 Q -2.141731990465522 2.9606035486151714 -2.19084698196862 2.9639779002127233 Q -2.2284506473381787 2.9665613881545987 -2.2570795906891945 2.9538784478257396 Q -2.28570853404021 2.9411955074968805 -2.3059192801400714 2.916368550109942 Q -2.3261300262399325 2.8915415927230033 -2.3374334157300973 2.856079099640601 Q -2.3487368052202626 2.820616606558199 -2.3516893628681204 2.7776409889929887 Q -2.3545891962722667 2.735432793170014 -2.3484264205439973 2.696071666384416 Q -2.3422636448157275 2.656710539598818 -2.3273692465824487 2.620990265714688 Q -2.3124748483491695 2.585269991830558 -2.287671332875671 2.5534951953534466 L -2.2420829450383137 2.5773496744401334 Q -2.2564296192525086 2.5929851724168507 -2.2684623072832752 2.6142445228510574 Q -2.2804949953140423 2.6355038732852645 -2.289525361784713 2.661183219319896 Q -2.298555728255384 2.686862565354527 -2.3023342321829623 2.7160363125162115 Q -2.306112736110541 2.7452100596778957 -2.304003766362071 2.775906929367332 Q -2.2995222056465723 2.8411377774573836 -2.2732277300609516 2.8759558586585245 Q -2.2469332544753304 2.9107739398596655 -2.20012052819894 2.9075577609932486 Q -2.166353971540561 2.905237894269932 -2.1472826772203915 2.885422579997909 Q -2.128211382900222 2.865607265725886 -2.1176959769803756 2.827874709955463 Q -2.107180571060529 2.7901421541850397 -2.098592520244577 2.735579044329139 Q -2.0894479446612366 2.6778935232605825 -2.0760210245035817 2.637647805288605 Q -2.0625941043459273 2.597402087316627 -2.0374625224534384 2.5760138464815565 Q -2.012330940560949 2.5546256056464856 -1.9685879012535028 2.551620323754916 Q -1.9179380662659335 2.5481405236699404 -1.881306839073568 2.5706827772037224 Q -1.8446756118812027 2.593225030737505 -1.8236359190470894 2.635729050317725 Q -1.802596226212976 2.6782330698979453 -1.7986946321783066 2.735022278823402 Q -1.7962165927238543 2.7710911007084893 -1.8013717674047696 2.8026725615843047 Q -1.8065269420856849 2.8342540224601205 -1.8185215470378755 2.8616791089540703 Q -1.8305161519900666 2.8891041954480206 -1.8496548117190832 2.9135504022953147 L -1.8944230535704931 2.890410620707152 M -2.307937699442251 3.1500887452190476 L -1.77123572761715 3.0489204838536996 L -1.7612613919895805 3.1018347627660336 L -2.2510964310637576 3.194168612575534 L -2.192675322387993 3.5040951033477756 L -2.2395422551389172 3.512929514903623 L -2.307937699442251 3.1500887452190476 M -2.0418482519635037 4.006053594061875 L -2.087350519507359 4.020339946338966 L -2.197263262026274 3.670266049267692 L -1.676188907895027 3.5066642731913205 L -1.568349990706658 3.850133002393325 L -1.6138522582505135 3.864419354670417 L -1.7055614228679725 3.5723241533405066 L -1.8934417533716332 3.631312962742691 L -1.8134842656272658 3.885978879480075 L -1.8567848105480314 3.899573956646985 L -1.936742298292399 3.644908039909601 L -2.1356312419115087 3.707353224862695 L -2.0418482519635037 4.006053594061875 M -1.824260543526453 4.508572235595596 L -1.8677178290611156 4.5282196411998115 L -2.0188760947580597 4.193878912167002 L -1.5212200829901465 3.9688844286348637 L -1.3729138600422015 4.296916842025544 L -1.4163711455768644 4.316564247629759 L -1.5424948138103731 4.037596511455633 L -1.7219313476309166 4.1187212829827144 L -1.6119692549750684 4.361941897184779 L -1.6533237686290216 4.380638621872661 L -1.7632858612848699 4.137418007670596 L -1.9532362545089605 4.223296183779342 L -1.824260543526453 4.508572235595596 M -1.7790778174512978 4.691593307962709 L -1.3116937778936475 4.409040333751833 L -1.1946929688542143 4.602576823371479 Q -1.1763867198208335 4.632858042835778 -1.1735726455172797 4.665763383727294 Q -1.1707585712137254 4.69866872461881 -1.1810099768584004 4.730034534153271 Q -1.1912613825030751 4.761400343687733 -1.2108963430314599 4.787652438214848 Q -1.2305313035598444 4.813904532741963 -1.2575210861258497 4.830220972097803 Q -1.295701754146052 4.8533027643572835 -1.3397515835539342 4.857011475854663 Q -1.3838014129618164 4.860720187352044 -1.4231728581442744 4.84317374982401 Q -1.4625443033267322 4.8256273122959765 -1.4872179433282453 4.784813494757139 L -1.5787491884951488 4.633407397435647 L -1.7512204819657184 4.737673424538816 L -1.7790778174512978 4.691593307962709 M -1.5379353709563117 4.608733757434134 L -1.447598011595933 4.75816499261665 Q -1.4308836103045854 4.785813062562314 -1.4034061805716798 4.797066846815042 Q -1.3759287508387739 4.808320631067771 -1.3448067648877626 4.804786924908162 Q -1.3136847789367514 4.801253218748553 -1.285378421611429 4.784140855521697 Q -1.2564137769064478 4.766630530359333 -1.240016382569243 4.7387401911523535 Q -1.223618988232038 4.710849851945373 -1.2223995724733956 4.680899330493039 Q -1.2211801567147533 4.650948809040704 -1.2367006721995761 4.625275601234017 L -1.3246502599469052 4.479794090329452 L -1.5379353709563117 4.608733757434134 M -0.8317396749315554 5.093977179421842 L -0.8019356278945811 5.1282041000228435 L -1.0647986745183746 5.657997574150766 L -1.102180021649495 5.615068894074933 L -1.0198680886660925 5.449554061235942 L -1.1810120040015986 5.264496643071203 L -1.355766998133583 5.323850010317257 L -1.3936534986043132 5.280341212943101 L -0.8317396749315554 5.093977179421842 M -0.9960440906921347 5.412488750784253 L -0.8646598465452824 5.15222315492118 L -1.141528252499739 5.2454149688674985 L -0.9960440906921347 5.412488750784253 M -0.9442582445552695 5.771862609796729 L -0.5800121745424041 5.364911968872279 L -0.5398902803667539 5.400823553239744 L -0.8723289470827212 5.772237659322905 L -0.6373292811967706 5.98257693918949 L -0.6691366844936686 6.01811347403078 L -0.9442582445552695 5.771862609796729 M -0.5417049708385744 6.114889738812156 L -0.2255274202121169 5.669563139394949 L -0.18162198083295572 5.700735573963755 L -0.4701896608413281 6.107174498502276 L -0.21302923019195535 6.289755900976709 L -0.24063910081004036 6.328643575855395 L -0.5417049708385744 6.114889738812156 M 0.09491247782521153 6.5221798800913415 L 0.3282745249332052 6.02839229555908 L 0.4958841134857054 6.107603919999962 Q 0.5744728417281639 6.144744640173488 0.6113689901712007 6.202594984993116 Q 0.6482651386142374 6.260445329812744 0.6482345518818888 6.328920904946477 Q 0.6482039651495402 6.397396480080211 0.6159934290698452 6.465553076255087 Q 0.5804961035942631 6.540664427141684 0.5253395563735189 6.582662288842528 Q 0.4701830091527747 6.624660150543372 0.4025172622661976 6.630117132396411 Q 0.3348515153796205 6.635574114249451 0.2625220663777117 6.601391504532224 L 0.09491247782521153 6.5221798800913415 M 0.5673101460877913 6.442545550483876 Q 0.5952478559528327 6.383430135434239 0.5950331886237642 6.327175367739829 Q 0.5948185212946957 6.270920600045419 0.5654154532589407 6.225119533501138 Q 0.536012385223186 6.1793184669568575 0.4755060192312045 6.150723399212638 L 0.35657971366075836 6.0945193005429665 L 0.16397385506176637 6.502067926649875 L 0.28290016063221257 6.558272025319547 Q 0.3441020020953662 6.587195772003355 0.39864900900965833 6.579792965002962 Q 0.4531960159239506 6.5723901580025705 0.49661290501293887 6.53633008629687 Q 0.5400297941019272 6.500270014591169 0.5673101460877913 6.442545550483876 M 0.9913426073028647 6.304592634553028 L 1.0345006151216465 6.31863363432952 L 1.0813226908035363 6.90819771035325 L 1.0271923081155727 6.890586964870871 L 1.0127273120317293 6.706301376477536 L 0.7793814731471297 6.630384784465657 L 0.659983495826955 6.771119475247162 L 0.605121621481046 6.753270746717724 L 0.9913426073028647 6.304592634553028 M 1.014112513092857 6.662261606537589 L 0.9930412555244299 6.371476458869272 L 0.8034429156045664 6.593722488984545 L 1.014112513092857 6.662261606537589 M 1.2910884084684564 6.39160210589706 L 1.4078749953178296 6.714951724688099 L 1.6424618581034462 6.462534280880069 L 1.6997673992456335 6.474102618430947 L 1.4245239471167825 6.76853654636416 L 1.3843391956242619 6.967597899805442 L 1.3315577761511947 6.956942852061213 L 1.3720469575792649 6.756373458063559 L 1.2330288470480826 6.379881553378408 L 1.2910884084684564 6.39160210589706 M 1.662076096843557 7.073707607847963 L 1.6827459458181506 7.011106400275573 L 1.6651792413962416 7.009001965141726 L 1.6738714734708298 6.936443838181667 L 1.724280277464134 6.942482652044013 L 1.7155880453895458 7.015040779004071 L 1.6888080383551576 7.0769100091386 L 1.662076096843557 7.073707607847963 M 2.463129593634157 6.599704331616003 Q 2.4513639983494793 6.58683138403468 2.4357999652839757 6.576717655644277 Q 2.4202359322184726 6.5666039272538725 2.4008734613721434 6.559249418054389 Q 2.3815109905258147 6.551894908854905 2.3595104836696494 6.54766397810684 Q 2.3375099768134846 6.543433047358776 2.3128983635432805 6.543863920891518 Q 2.2413708624767494 6.54511614709605 2.2083924510129513 6.573005374276255 Q 2.1754140395491532 6.600894601456458 2.176235392220943 6.647810489252786 Q 2.1768009137326674 6.680113231669929 2.1928908836334484 6.698295913265669 Q 2.20898085353423 6.716478594861409 2.2430237937492334 6.727422837474297 Q 2.2770667339642374 6.738367080087184 2.329581848929793 6.749757280465209 Q 2.388249867212899 6.761039762460049 2.430847303074823 6.777219682698914 Q 2.4734447389367467 6.793399602937778 2.4970230562987457 6.821837393301853 Q 2.520601373660744 6.850275183665928 2.521463120726229 6.899498410206337 Q 2.5221228958232405 6.937184943026337 2.5079944831683916 6.9651288391153825 Q 2.4938660705135427 6.993072735204428 2.4680393865635075 7.011989248285619 Q 2.442212702613472 7.030905761366812 2.4062192407986887 7.040383405387006 Q 2.3702257789839054 7.049861049407201 2.327155455761048 7.0506150780895 Q 2.2848542454528844 7.051355641973901 2.245859198085014 7.04319081574878 Q 2.2068641507171436 7.035025989523659 2.1719511116032093 7.018326864848466 Q 2.137038072489275 7.001627740173272 2.1065714008897767 6.975233915277015 L 2.1327228594238656 6.9309232112130275 Q 2.1476053007610134 6.946049638346839 2.1682224269636197 6.95915229720968 Q 2.188839553166226 6.972254956072521 2.2140242300643522 6.982584930946544 Q 2.239208906962478 6.992914905820567 2.268151627247735 6.998178322759589 Q 2.297094347532992 7.00344173969861 2.3278588641207474 7.002903147782683 Q 2.3932334618697277 7.001758639961336 2.429348916582843 6.977276561705661 Q 2.4654643712959587 6.952794483449987 2.464643018624169 6.90587859565366 Q 2.464050567516648 6.8720376274071295 2.4452350404196928 6.851979290317298 Q 2.4264195133227373 6.831920953227467 2.3892731918531616 6.819492343976784 Q 2.352126870383586 6.807063734726102 2.298073529588643 6.795700463943873 Q 2.2409302723370264 6.783621939438543 2.201422752931776 6.76815727292278 Q 2.1619152335265257 6.752692606407016 2.141838318674344 6.72650156319648 Q 2.1217614038221626 6.700310519985946 2.1209939103419653 6.656471083848395 Q 2.1201052336806843 6.605709631478598 2.144488755103868 6.570277387928335 Q 2.1688722765270514 6.534845144378072 2.212395289913995 6.5160034974025685 Q 2.255918303300939 6.497161850427065 2.3128326589882864 6.496165455382599 Q 2.3489809659788987 6.4955326098813835 2.380257954604034 6.502293858256099 Q 2.411534943229169 6.5090551066308135 2.4383117051482754 6.522434603567816 Q 2.4650884670673823 6.535814100504818 2.48852540405145 6.556176205264607 L 2.463129593634157 6.599704331616003 M 2.931036543292778 6.997945715078762 Q 2.8671620393135933 7.0077025419403585 2.8195736341154904 6.99162707573318 Q 2.771985228917388 6.9755516095260015 2.74026555163402 6.941100057887257 Q 2.7085458743506523 6.906648506248512 2.6893257346980386 6.859782584363832 Q 2.6701055950454253 6.812916662479153 2.662207211395562 6.761208730686479 L 2.6206245445330443 6.488981678013286 L 2.6730928870873747 6.480967141662689 L 2.7146755539498924 6.753194194335882 Q 2.721063952490223 6.795016786227015 2.7359647693881426 6.833982800536401 Q 2.750865586286062 6.872948814845787 2.775514679519941 6.901866096616315 Q 2.8001637727538204 6.930783378386842 2.8364675874346923 6.944302723215173 Q 2.872771402115564 6.9578220680435034 2.9229585123849238 6.950155989795107 Q 2.9746664441775974 6.942257606145243 3.0055428292026334 6.917698336540359 Q 3.0364192142276694 6.893139066935475 3.050931275219124 6.858239921077184 Q 3.0654433362105786 6.823340775218893 3.0677098378003076 6.782141530523836 Q 3.0699763393900366 6.740942285828779 3.063704093550439 6.699880104699303 L 3.0221214266879213 6.427653052026109 L 3.075350180003909 6.41952236297478 L 3.116932846866426 6.691749415647973 Q 3.1251796886184895 6.745738579725617 3.120563041979642 6.7970237224450525 Q 3.1159463953407944 6.848308865164487 3.0946432956379035 6.88969241336171 Q 3.073340195935012 6.931075961558934 3.0333652108418305 6.959748577588782 Q 2.993390225748649 6.988421193618632 2.931036543292778 6.997945715078762 M 3.3752239832244073 6.90723425248638 L 3.2190357288605123 6.3838899558064615 L 3.4401671218238583 6.3178949187512945 Q 3.474073935411571 6.307775679736169 3.5062635975337555 6.31342129659686 Q 3.53845325965594 6.319066913457551 3.5666102043351007 6.336753285841672 Q 3.594767149014262 6.354439658225794 3.6148816175296314 6.38014554805145 Q 3.6349960860450015 6.405851437877107 3.6440154077758744 6.436072728248765 Q 3.655234564075253 6.473665065052534 3.6507602790909104 6.511124451405621 Q 3.6462859941065675 6.548583837758709 3.626938266434939 6.579243494416449 Q 3.6075905387633105 6.60990315107419 3.574409350457681 6.627833403435128 L 3.7629410255534737 6.791522954182987 L 3.7047097587397926 6.8089016472741815 L 3.523977617628684 6.652517468046902 L 3.369185642554342 6.6987139939855185 L 3.426821308249188 6.8918354105068405 L 3.3752239832244073 6.90723425248638 M 3.355546668229608 6.6530135061064275 L 3.526554945454595 6.601977344117098 Q 3.5575133404694634 6.592738038929375 3.5753039649014466 6.568965144973151 Q 3.5930945893334294 6.545192251016927 3.597375988636123 6.513811108130049 Q 3.601657387938817 6.482429965243172 3.5924180827510934 6.451471570228303 Q 3.5829587941065197 6.419776070570224 3.5605558573888567 6.397161428501603 Q 3.538152920671194 6.3745467864329814 3.509247391987694 6.365111394308374 Q 3.480341863304194 6.355676002183766 3.450857677575748 6.364475340457789 L 3.2842720282100277 6.414191601706014 L 3.355546668229608 6.6530135061064275 M 3.9331073963224283 6.7246970803024055 L 3.7151536772822564 6.223917488041302 L 4.043834367414192 6.080866173854372 L 4.062866945696573 6.124596222756046 L 3.7835588914213663 6.246159142108029 L 3.8636799064488097 6.430248541516688 L 4.099257911822343 6.327718200447086 L 4.117062581828441 6.368626955871233 L 3.881484576454908 6.471157296940835 L 3.982480032179157 6.703208685467459 L 3.9331073963224283 6.7246970803024055 M 4.43749923099486 5.850124037298883 L 4.475453585397747 5.825239698941806 L 4.964680954590572 6.157556848275907 L 4.917077188051358 6.188767713333936 L 4.764261531774463 6.084759110815465 L 4.5590507003419045 6.219303245322376 L 4.594143528555607 6.40049547359246 L 4.5458964678739715 6.43212810709722 L 4.43749923099486 5.850124037298883 M 4.730771560925557 6.056126228129948 L 4.490739773756963 5.8906428720222985 L 4.545502847908074 6.177595540788224 L 4.730771560925557 6.056126228129948 M 5.093848503178758 6.053580956887246 L 4.740084079954843 5.637486308363991 L 4.781107496006432 5.60260812579262 L 5.103979814667131 5.982367748670182 L 5.344259822969292 5.778081250752146 L 5.375151927532507 5.814416276397839 L 5.093848503178758 6.053580956887246 M 5.488323786033058 5.701294141014707 L 5.0900161248639115 5.327616431320105 L 5.126857589199999 5.288346661909062 L 5.490383454605079 5.629393360334559 L 5.7061691742878775 5.399384710927023 L 5.740950970051944 5.43201572219613 L 5.488323786033058 5.701294141014707 M 5.634679457941717 4.836690159803862 L 6.010993715399077 5.077787269534995 L 5.981945870853157 5.123126336698532 L 5.5220781896229925 4.828498199161347 L 5.546146403675326 4.790931543511559 L 6.122961022521222 4.734764667411216 L 5.740169755469071 4.489517865602094 L 5.769217600014991 4.444178798438557 L 6.228437580285676 4.738391966767944 L 6.201464581778751 4.780492529134086 L 5.634679457941717 4.836690159803862 M 6.324388500320329 4.5498063848145405 L 5.837022016672622 4.303315138954757 L 5.861323970489783 4.255264922257096 L 6.348690454137491 4.501756168116879 L 6.324388500320329 4.5498063848145405 M 6.524869327380705 4.112175438308191 Q 6.505016803525243 4.163054879473113 6.466103748444775 4.198240005296615 Q 6.427190693364307 4.233425131120118 6.377344291757663 4.251132787626279 Q 6.327497890151021 4.268840444132441 6.274784213122657 4.268502201622456 Q 6.222070536094294 4.268163959112472 6.173340930471552 4.249150274293156 Q 6.1217448774592365 4.229018137425647 6.082373932097566 4.193426107887367 Q 6.043002986735894 4.157834078349088 6.019475366896376 4.112322506461347 Q 5.995947747056857 4.066810934573606 5.991942784205378 4.015705446380596 Q 5.987937821353898 3.964599958187587 6.00779034520936 3.913720517022665 Q 6.037149711474478 3.838476273046372 6.086418479707605 3.803203250636513 Q 6.135687247940734 3.767930228226654 6.194640307820526 3.762858723246646 L 6.205339231676051 3.8116218314396377 Q 6.148536007338438 3.817532175455791 6.110383098382468 3.849711047383696 Q 6.072230189426499 3.881889919311601 6.052657278583086 3.9320527486291295 Q 6.03616011087221 3.974332847625332 6.040793788984726 4.015362235677731 Q 6.045427467097242 4.056391623730129 6.066018322278102 4.092500173047548 Q 6.0866091774589615 4.128608722364967 6.119696377659952 4.155968919332932 Q 6.152783577860942 4.183329116300898 6.193630453162357 4.199267057987677 Q 6.236627164005953 4.216043838710601 6.280558158082468 4.216670897907345 Q 6.324489152158982 4.217297957104087 6.364574225271607 4.2023872587505595 Q 6.404659298384231 4.187476560397032 6.435060907882336 4.159291791581604 Q 6.465462517380443 4.131107022766177 6.481120846055173 4.090976759312154 Q 6.499295691838341 4.044396989231592 6.492223361496888 3.993746079191198 Q 6.485151031155434 3.943095169150804 6.451240915171276 3.886101056419646 L 6.504270191878377 3.9067924193112535 Q 6.563455923043432 4.0132830033679205 6.524869327380705 4.112175438308191 M 6.37363753990984 3.8649040334879023 L 6.329458684006138 3.978128705376038 L 6.290761644246902 3.9630296027254053 L 6.35143766786148 3.807524831841067 L 6.601535202601729 3.9051097730460804 L 6.585038034890853 3.947389872042283 L 6.37363753990984 3.8649040334879023 M 6.228026353237361 3.1621214413068004 L 6.759897493955323 3.286206546537093 L 6.747838518939985 3.337895432043487 L 6.4991325770831345 3.2798725377667863 L 6.425555352714187 3.595249650784057 L 6.6742612945710365 3.6532725450607573 L 6.662027551801852 3.705710544849852 L 6.130156411083891 3.5816254396195593 L 6.142390153853074 3.5291874398304643 L 6.379110267186703 3.5844140500456367 L 6.4526874915556505 3.2690369370283663 L 6.215967378222023 3.213810326813194 L 6.228026353237361 3.1621214413068004 M 6.336431340395799 2.6265233925408067 L 6.316435603093568 2.820108821792944 L 6.812259153114852 2.8713232003377884 L 6.806726735679453 2.9248843862968776 L 6.310903185658168 2.8736700077520334 L 6.290907448355937 3.0672554370041705 L 6.243467540792172 3.062355295847102 L 6.2889914328320335 2.6216232513837383 L 6.336431340395799 2.6265233925408067 M 6.828555461345736 2.60726776161348 L 6.753202219736585 2.6050930856193903 L 6.7545114634473125 2.5597273585281664 L 6.8298647050564645 2.561902034522256 L 6.828555461345736 2.60726776161348" fill="#e36e19" fill-rule="nonzero"></path></g><g clip-path="url(#SvgjsClipPath1001)"><g clip-path="url(#SvgjsClipPath10009013986c-3e3d-4ca7-81f8-e6652b53a274)"><path d=" M 2.2592380177694436 2.6512151272216435 C 2.21243577794412 2.66666617594431 2.186655575102986 2.698110154992696 2.1791620206059736 2.746281944896968 C 2.178773967572438 2.7855141171878848 2.192459279238819 2.823586224972943 2.2177358254041164 2.853593059890589 C 2.2382159807852537 2.876816026947454 2.262251770246696 2.8886075190905984 2.2780702592344473 2.8831181842213165 C 2.312847386555374 2.8721383607519932 2.350239109792888 2.8896229619853764 2.364110501627708 2.923351134136834 C 2.377981893462529 2.957079306288291 2.3637104351723095 2.995811434105283 2.3312711557971904 3.0124757151199684 C 2.211081398987686 3.074555729985344 2.0686830305420973 3.0764504150336998 1.9468841003055595 3.0175901866885084 C 1.814883968712567 2.9544238647545527 1.721093913170464 2.8307449561344695 1.689564569212009 2.6783574571060687 C 1.6581131671279659 2.5265118396807207 1.7081221583576565 2.3671429756157276 1.8233833445412746 2.252097057466199 C 1.8917569259894997 2.183768014231924 1.9725863612722823 2.1422361297239645 2.0461597791991175 2.1352770337943463 C 2.100273709147826 2.0330766788514354 2.2460732640295213 1.9182645863251422 2.414449981865813 1.8523554527154595 C 2.5741491710175985 1.7896938972062655 2.8804718720091467 1.722322425571906 3.1792935954680246 1.9483872650263574 C 3.3420065370970637 1.8748992120095926 3.5436607237893307 1.8918905406313475 3.7311517584456384 1.9950002174423953 C 3.7731075366611035 1.8534254890290707 3.7946228085023868 1.7065829775885883 3.7950455378741035 1.558922853144479 C 3.7950455378741035 0.6978247361616202 3.0971168792132673 -0.000011134553487284 2.236208049639696 -0.000011134553487284 C 1.3752992200661243 -0.000011134553487284 0.6774485032796985 0.6978358707151074 0.6774485032796985 1.5589339876979653 C 0.6774485032796985 2.4196683759335684 1.3752917970304641 3.117589611558746 2.236200626604036 3.117589611558746 C 2.412987643841135 3.117589611558746 2.581650148550268 3.0857819037631056 2.7398795766417194 3.0313079565849717 C 2.721676001569488 2.9353532806309177 2.676673679236251 2.8465144859025058 2.610080375121401 2.7750721886975254 C 2.499098568994769 2.6560586579886585 2.346900357375654 2.6224174603854284 2.2592380177694436 2.6512151272216435 Z" fill="#ec2227" transform="matrix(1,0,0,1,0,0)" fill-rule="nonzero"></path></g><g clip-path="url(#SvgjsClipPath10009013986c-3e3d-4ca7-81f8-e6652b53a274)"><path d=" M 4.465000486656788 4.279714093590984 C 4.447569013679079 4.245097037254209 4.4053903098201355 4.2311443293262325 4.370753914421701 4.248537343826296 C 4.334915498263627 4.266549339851061 4.2980081649707635 4.28574531006332 4.259779531330728 4.3056687377700875 C 4.113426960292492 4.381907025498237 3.9541026344414476 4.464269317644451 3.777579134970218 4.523137701932275 C 3.9806956596871603 4.3681966786374335 4.178512136944108 4.134912937005325 4.286190692202814 3.8358128497092623 C 4.497724939356223 3.2480383286991623 4.344520906405413 2.7131046870223794 4.08810327414434 2.4887694148763027 C 4.074018063982795 2.3015641670928373 3.9455995470949126 2.117732689016051 3.745771427174578 2.0025086180107246 C 3.74094645399671 1.9997249796388774 3.7359952892126516 1.9977096254576598 3.731151758445637 1.9950113519958828 C 3.5436607237893285 1.891901675184835 3.3420065370970633 1.8748992120095926 3.179293595468023 1.9483983995798444 C 2.880471872009146 1.7223335601253935 2.574149171017597 1.789705031759753 2.414449981865811 1.8523665872689468 C 2.24607326402952 1.9182757208786292 2.100273709147824 2.0330878134049226 2.046159779199115 2.135288168347834 C 1.972575226718793 2.1422361297239645 1.8917606375073268 2.183779148785411 1.8233833445412728 2.252108192019686 C 1.7081147353219965 2.367165244722702 1.6581131671279643 2.526522974234208 1.6895645692120072 2.678368591659556 C 1.7210939131704623 2.8307449561344695 1.8148839687125664 2.9544238647545527 1.946884100305558 3.017601321241996 C 2.0686830305420956 3.0764615495871874 2.2110813989876843 3.074566864538832 2.3312711557971886 3.0124868496734556 C 2.3637104351723077 2.9958225686587703 2.3779818934625263 2.957090440841778 2.364110501627706 2.923362268690321 C 2.3502391097928865 2.8896340965388636 2.3128473865553723 2.8721494953054805 2.278070259234445 2.8831293187748037 C 2.2622517702466953 2.8886186536440865 2.238215980785252 2.8768197384652834 2.2177358254041155 2.853604194444078 C 2.192459279238819 2.823597359526433 2.178773967572437 2.785525251741375 2.179162020605972 2.7462930794504556 C 2.1866555751029844 2.698121289546183 2.2124357779441177 2.6666773104977977 2.2592380177694418 2.6512262617751317 C 2.3469003573756524 2.6224285949389152 2.499098568994768 2.6560697925421457 2.6100803751213992 2.7750833232510135 C 2.6766736792362495 2.846525620455994 2.7216760015694863 2.935364415184406 2.7398795766417177 3.0313190911384593 C 2.746340430851111 3.0635032901071972 2.749830319754404 3.096213078304387 2.7503052302237427 3.129035932543781 C 2.645814868780258 3.150332621847327 2.555135065178965 3.199692097456921 2.4916978024434835 3.2740041074317525 C 2.410526907520421 3.3690820596605637 2.3821857573771874 3.4962312374508837 2.411989245545097 3.632069078479196 C 2.4189842158994668 3.663898990707425 2.446968299095908 3.686727001986062 2.4795545346306596 3.687185451971314 C 2.512140770165412 3.687643901956566 2.5407559770709613 3.6656121760814666 2.5486436204958176 3.633991644714685 C 2.552574117876866 3.6182696551904927 2.587492077613317 3.5874677687265466 2.642801116303005 3.5821602982308915 C 2.681924225739859 3.578504453169198 2.7547813207256726 3.5863654479312945 2.7989298253031683 3.6816289760515626 C 2.801674880160762 3.6889382054742765 2.8039339302889505 3.696420844071214 2.8056922107878424 3.7040279861503596 C 2.816481593117121 3.778347419160849 2.785041325586564 3.8059536887739145 2.774070078883658 3.814820504867705 C 2.7019441529101833 3.872772144251734 2.4916050144977544 3.8863934146846395 2.1355591091493564 3.7341024151197955 C 1.9295104853474008 3.645976135784944 1.3666959217381978 3.4576685672062273 0.591979670710501 3.612891665856083 C 0.5539638073630598 3.620513901802242 0.529324904152924 3.6575108912152956 0.536947140099083 3.6955267545627377 C 0.5445693760452415 3.733542617910179 0.5815663654582962 3.7581815211203145 0.6195822288057373 3.7505592851741563 C 1.355999327354646 3.60301160539494 1.8863640905837702 3.780173485932781 2.080342858405397 3.8631778706634337 C 2.2369280840985435 3.930178190514881 2.379532022129359 3.971684094398036 2.5023943968270332 3.9878626006152116 C 2.365550734467028 4.004679487898997 2.1664574950768607 3.992887995755854 1.8785921722495726 3.9097017466515727 C 0.9783783688655187 3.650006844147379 0.2825504292959707 3.9377719559932793 0.253392745230329 3.950201829203035 C 0.23024253723715138 3.9599588536585872 0.21407057353990336 3.9813425606459214 0.21098613696988985 4.00627482703707 C 0.20790170039987674 4.031207093428219 0.21837499347595674 4.055887155553096 0.238449520204524 4.070991626181943 C 0.2585240469330909 4.086096096810789 0.2851395748151368 4.089322396534202 0.3082415557092034 4.079451726084643 C 0.31500022967605024 4.076534473070946 0.9870781666569985 3.798460134276902 1.8396546387041746 4.04462284277609 C 2.5147314820910593 4.23960743192941 2.7789136096506715 4.078174963951421 2.8763520872188093 3.9645505571304493 C 2.9598129886424456 3.8672011559902106 2.9790126703725326 3.7361177693010132 2.9263610784484997 3.6225824389079397 C 2.8684020160288135 3.49752284565542 2.7571529806184847 3.430522525803974 2.629550997653011 3.4424068058928468 C 2.6018651974426756 3.4449898106937855 2.574669491856371 3.4513884328908393 2.5487364084415445 3.461420911731478 C 2.557648257276747 3.4259485608369165 2.5746732446910743 3.393029350097721 2.5984707473518798 3.3652554847787313 C 2.6619970865152616 3.290754187394614 2.7735244857627754 3.2500833750230127 2.8976599110758428 3.258118811123078 C 2.9459888315109795 3.2608960487663117 2.9932125338426028 3.273690672824953 3.036333351725609 3.295690506107357 C 3.0368826563643205 3.295968869944541 3.037339173057304 3.2962435222638966 3.037884766178186 3.296514463065423 C 3.0857541139238105 3.321352540074068 3.128031535288866 3.3557279702210607 3.1621129794369804 3.3975234207851837 C 3.2179638997297215 3.4663572304442205 3.248134828162715 3.5510058175731776 3.238900571803842 3.6133481825490668 C 3.235522634302599 3.636469376370952 3.243846250201121 3.659758811932632 3.261114006011181 3.67550126011567 C 3.307370652715623 3.7177420445289933 3.328028960952558 3.8062320526110995 3.3148642072126355 3.906595206228592 C 3.2973124393986817 4.039690235581177 3.228196554384632 4.155693725330621 3.138626494614249 4.202124813373032 C 3.116279806179117 4.213610090081896 3.1017757997213313 4.236163216568221 3.10059583862742 4.261260900862053 C 3.0994158775335072 4.2863585851558845 3.1117399249015354 4.310173025609236 3.1329104688768634 4.323704253671934 C 3.1540810128521914 4.3372354817346315 3.1808692040250954 4.33841976688591 3.2031512320736666 4.326809543324809 C 3.3112046506331145 4.270873258121998 3.3799456723464223 4.168123598540376 3.4187013415181933 4.063547872186822 C 3.5946792478685414 4.00970488303964 3.7318829274579732 3.8834650271174573 3.806651454125788 3.7028440119628674 C 3.8935900477553185 3.492400951051222 3.8841776385406455 3.241023560002108 3.7831649693030567 3.077122932667747 C 3.6470524759553893 2.8561799878174945 3.486354888507567 2.8611125950124077 3.4239160240681206 2.873549891257821 C 3.3928659527375964 2.8795917599168317 3.363205562103701 2.8913393837688157 3.336439260353367 2.9081969101927454 C 3.342848765201794 2.875074331498219 3.3592432892109194 2.8447072901079564 3.383419653034488 2.8211766631709736 C 3.4303221038411986 2.774738152092905 3.515880012838293 2.7467644422147557 3.6015269982632865 2.7899108369783865 C 3.6361596424553873 2.8073291373555507 3.678355270121209 2.793374154441457 3.695773570498372 2.7587415102493567 C 3.7131918708755363 2.7241088660572563 3.6992368879614426 2.6819132383914344 3.664604243769342 2.6644949380142706 C 3.5884188308460665 2.6259633721666695 3.500384773188557 2.6180164063283557 3.4185306116980536 2.6422815038069296 C 3.3860351785635134 2.5918360581237674 3.346160897460594 2.546547121881121 3.300237115448036 2.50792455839244 C 3.2084698371228098 2.432187325571223 3.0590107256615915 2.3619839658332373 2.8565325820112584 2.440237607742605 C 2.730107150197618 2.3616165255681536 2.5770849816204375 2.3404571624242863 2.4215055772589844 2.3808533224765323 C 2.2595238046422836 2.422852858230962 2.1118944714708268 2.5272912584248384 2.062434784879848 2.6347953723455753 C 2.047981238256701 2.6664934608181987 2.03987732968046 2.7007159880731795 2.0385808597920323 2.7355296777459808 C 2.038491783364134 2.7359861944389636 2.0383024959548472 2.7364389996141174 2.0382097080091195 2.7368955163071003 C 2.038220865531396 2.7374796777319523 2.038280454070477 2.738061907415889 2.038387860864919 2.738636218168962 C 2.036588161913903 2.801746168648094 2.054408145090059 2.863860649374182 2.0893915388728153 2.916417922184266 C 2.061002285767108 2.911919436068459 2.0334156386626185 2.9033268943504686 2.007493186455243 2.89090866014466 C 1.9154475442928305 2.846852943512892 1.8496237755932181 2.759008739533054 1.8270391896029659 2.6498604232140126 C 1.8052859836064372 2.544557239365949 1.8409388238730553 2.432985301904486 1.922569947006931 2.3514543897519973 C 1.9817092720962808 2.292541467250224 2.0472546769587088 2.2684091783252236 2.0800644945682136 2.2758099448765083 C 2.099236937720546 2.279793855731764 2.119201299282322 2.27554972896015 2.1350951694207168 2.264111240679092 C 2.15103868331907 2.252713206722793 2.1615329716437617 2.2352061475270997 2.1640709891127328 2.215772432472508 C 2.1688254434518472 2.179399557747038 2.2778846833429904 2.0560324166246016 2.467647166910725 1.9823179610202595 C 2.604401752842833 1.929161602671466 2.871965073144781 1.8717555564083195 3.1257289701580264 2.08524577345768 C 3.148323848835083 2.1043506647317685 3.1804946859848426 2.1071743627307775 3.2060721966051937 2.0922976573330265 C 3.335414881432529 2.017384381469875 3.511014212964306 2.02917587361302 3.675649720828834 2.1241981530743947 C 3.8416770478792857 2.219888505745013 3.948977028319421 2.3764254817063803 3.948977028319421 2.5229673401539014 C 3.9489838832317643 2.544704636133313 3.9590403413524844 2.56521761855615 3.976219569185203 2.5785361850916075 C 4.208864929750729 2.75825530141374 4.350188394130495 3.24326902828873 4.154001273200538 3.788283152389429 C 3.9677944237131078 4.3056687377700875 3.498298552881708 4.587220768770026 3.28769589670341 4.599465066088324 C 3.284183589526227 4.600109367816807 3.280727404388455 4.601028948853465 3.2773593195492836 4.602215300799709 C 3.0748811758989505 4.597278982086967 2.852843333289105 4.546913685145679 2.6059457442597496 4.421490363145904 C 1.7656135695308726 3.99477715833088 0.7103622433884195 3.9232970364596738 0.03959818371898284 4.248080827133314 C 0.004712387892750427 4.264991798702924 -0.009859086424376324 4.306981374912691 0.007051884777653789 4.3418671709171095 C 0.0239628559796839 4.376752966921528 0.06595243203591401 4.391324441681086 0.10083822821851879 4.374413470846638 C 0.7343943213320329 4.0677233297445925 1.7387570265192913 4.138390629211219 2.5423563092932735 4.5467243977363925 C 2.824632086269893 4.690055793261718 3.079309016669103 4.7438987824089 3.3093860068968435 4.7438987824089 C 3.722207000477435 4.7438987824089 4.055490166979782 4.570396458450582 4.324697689680034 4.430171603348239 C 4.362269384664312 4.410615615906555 4.398653393943269 4.391694298013653 4.433846005999074 4.373956954308242 C 4.450482198313034 4.365598721624515 4.463113308410013 4.350969865292381 4.468956901291078 4.333292892402695 C 4.474800494172144 4.31561591951301 4.473377177893267 4.296340999263148 4.465000486656788 4.279714093590984 Z M 3.679684140709098 3.18268221124602 C 3.73937277043716 3.308094398692307 3.7398107295409964 3.4969549834275635 3.676848541087643 3.64914948352885 C 3.641930581351193 3.7335271298562813 3.5757430839043254 3.8359093491728196 3.455363714634338 3.898069849775082 C 3.4600281163745663 3.849624995777995 3.4579044140353616 3.8007661003729174 3.449054134324817 3.752908675959996 C 3.622181594982393 3.6066526043853173 3.6812318436438436 3.372363041421514 3.679684140709098 3.18268221124602 Z M 3.3859026584621783 3.0510458084002825 C 3.4024047314283754 3.0306243880012937 3.425465293572904 3.0165428232411027 3.4511696994874215 3.0111915299510894 C 3.4726664852920237 3.007424558364873 3.4947653257648352 3.009122014780053 3.5154346306987994 3.016127848663832 C 3.5583917380531447 3.1298450434305325 3.5575752041307367 3.4380865991397407 3.3910987834229593 3.6146880404853823 C 3.387439226843438 3.6095698573990123 3.3848819910591676 3.6030821242336946 3.3808587057323907 3.5982423049845096 C 3.3823247552748974 3.5437572232528876 3.36823954511335 3.485783314761884 3.343294433783771 3.4291232835823924 C 3.379221926369745 3.3165046980931145 3.3937450956351287 3.187251089693678 3.3859026584621783 3.0510458084002825 Z M 3.0446582862163494 2.548291026302053 C 3.109929038759422 2.5886834748364698 3.173277225067005 2.699483416589474 3.211030784424911 2.839333408391075 C 3.18242240499798 2.9221559287481007 3.188910138163298 3.0175901866885084 3.233975387644589 3.10963954036875 C 3.237586674369011 3.1167870617697004 3.2424115458970237 3.1232532938097153 3.248235039144106 3.128750145670938 C 3.2479006083812507 3.1762061937717707 3.243988716288963 3.2235694924153084 3.236532623428862 3.270437338797944 C 3.2065064408062156 3.23996843839167 3.172859409345193 3.2132941228672616 3.1363439111493365 3.1910108572545863 C 3.1325099132318472 2.9742804851403957 3.0586469969143395 2.7299364203774816 2.9350571647221555 2.5619085852171284 C 2.9704859871848877 2.5508911062712407 3.007595619353603 2.5462797386485687 3.0446434401450326 2.548291026302053 Z M 2.456794688778351 2.5167431247544516 C 2.5126381860354345 2.5022088209355804 2.5850461873639228 2.4934310812696894 2.6618300682129545 2.5102553915891335 C 2.82280973101579 2.570040520780752 2.9689693031269107 2.8541460760471313 2.9927415748224853 3.1313036699373793 C 2.964242738372476 3.124280601569285 2.935180529035613 3.1197821689958616 2.9058920576208545 3.1178605523602725 C 2.900695932660072 3.1175859000409174 2.8956631144837726 3.117860552360273 2.8905449313974034 3.1176823995044742 C 2.887523755884491 3.0161241371460026 2.8589116649397326 2.836045003594466 2.71284116925651 2.6792704904920344 C 2.6408057472055346 2.602807099394848 2.5491732759467483 2.547571890949941 2.4479204496489015 2.519578724375907 C 2.450923067572668 2.5186694025077703 2.4537586671941223 2.517574504748177 2.4567798427070335 2.516746836272281 Z M 2.2673847994043834 4.63401558555969 C 1.3143301166870123 4.162975723311374 0.4366823417040661 4.434740481795896 0.39984552724995553 4.446442897511142 C 0.37594044218813805 4.454085947642447 0.35792875143080405 4.473901628347511 0.3525952846482723 4.4984255643937905 C 0.3472618178657396 4.5229495004400695 0.3554168555501087 4.548455922496277 0.3739884738942843 4.565336808112875 C 0.3925600922384599 4.582217693729472 0.4187268205809428 4.587908434770285 0.44263190548169473 4.580265384135218 C 0.4511238575772094 4.577429784736782 1.3028132768632237 4.313893461279439 2.2052317218377797 4.759802636306721 C 2.214847090066521 4.764636124085133 2.225464773170979 4.767139562958643 2.2362266072288413 4.767110614912276 C 2.268844758884686 4.767138840677709 2.297183146311487 4.744691432788818 2.3046223930159626 4.712932934357571 C 2.312061639720438 4.681174435926325 2.2966406974749813 4.648476655219615 2.2674033569935292 4.63401558555969 Z M 1.5632245023084383 4.775179454672804 C 1.2558143265929553 4.573436191552638 0.8653032666832612 4.667953704589251 0.8488463966289012 4.672069777861755 C 0.8112322969618269 4.681436406114002 0.7883331969323365 4.719521811079417 0.797699825184581 4.757135910746491 C 0.8070664534368257 4.794750010413566 0.8451518584022418 4.817649110443056 0.8827659580693161 4.80828248219081 C 0.886321592149622 4.8075401786249845 1.2311327330292436 4.725003445140801 1.4860731811943226 4.892563629054685 C 1.5184858760709228 4.913868378094997 1.5620324683841795 4.904863608815231 1.5833372174244917 4.872450913938632 C 1.604641966464804 4.8400382190620315 1.5956371971850387 4.796491626748775 1.5632245023084383 4.775186877708463 Z" fill="#59595c" transform="matrix(1,0,0,1,0,0)" fill-rule="nonzero"></path></g></g><g><path d=" M -3.1444516812755787 2.452023532609006 A 5.380711692164882 5.380711692164882 0 0 1 7.616971703054185 2.452023532609006 A 5.380711692164882 5.380711692164882 0 0 1 -3.1444516812755783 2.452023532609006 Z M -3.094451681275579 2.452023532609005 A 5.330711692164881 5.330711692164881 0 0 0 7.5669717030541825 2.452023532609005 A 5.330711692164881 5.330711692164881 0 0 0 -3.0944516812755793 2.452023532609005 Z" fill="#d31b45" fill-rule="nonzero"></path></g><g transform="matrix(0.3334513752090171,-0.9427672991630625,0.9427672991630625,0.3334513752090171,-2.7117463693263106,-1.0289032716129247)"><g clip-path="url(#SvgjsClipPath1002)"><path d=" M -2.0837053307662217 1.593081559883498 C -1.9755207780318467 1.593081559883498 -1.886225212602159 1.5037859944538106 -1.886225212602159 1.3957924807819355 C -1.886225212602159 1.2877987500202168 -1.9757118170943464 1.1985036187702167 -2.0838963698287216 1.1985036187702167 C -2.191889666410753 1.1985036187702167 -2.2809939756880966 1.2877987500202168 -2.2809939756880966 1.3957924807819355 C -2.2809939756880966 1.5037859944538106 -2.1916988444380965 1.593081559883498 -2.0837053307662217 1.593081559883498 Z M -2.141327487992784 1.3770945325397481 C -2.1531567135787215 1.3770945325397481 -2.1628866803755966 1.366600409492873 -2.1628866803755966 1.352098807930373 C -2.1628866803755966 1.3372172991413105 -2.1531567135787215 1.326912044258498 -2.141327487992784 1.326912044258498 C -2.1296893014693463 1.326912044258498 -2.1197661247115342 1.3372172991413105 -2.1197661247115342 1.352098807930373 C -2.1197661247115342 1.366600409492873 -2.1296893014693463 1.3770945325397481 -2.141327487992784 1.3770945325397481 Z M -2.025319017289659 1.3770945325397481 C -2.037150413774034 1.3770945325397481 -2.046689341508409 1.366600409492873 -2.046689341508409 1.352098807930373 C -2.046689341508409 1.3372172991413105 -2.037150413774034 1.326912044258498 -2.025319017289659 1.326912044258498 C -2.0136808307662215 1.326912044258498 -2.0035687858443465 1.3372172991413105 -2.0035687858443465 1.352098807930373 C -2.0035687858443465 1.366600409492873 -2.0136808307662215 1.3770945325397481 -2.025319017289659 1.3770945325397481 Z M -2.1537298307662214 1.4518884964069354 C -2.1537298307662214 1.447119032539748 -2.1489581960005966 1.4448287346881856 -2.144379771195909 1.446927993477248 C -2.1298781696334093 1.4545587014850605 -2.112897402055284 1.463335643867873 -2.0838963698287216 1.463335643867873 C -2.054704298539659 1.463335643867873 -2.0377213600630966 1.4543676624225605 -2.023221929399034 1.446927993477248 C -2.018832372758409 1.4448287346881856 -2.0138718698287215 1.447119032539748 -2.0138718698287215 1.4518884964069354 C -2.0138718698287215 1.4652438635944356 -2.0419198776412215 1.4931008323444357 -2.0838963698287216 1.4931008323444357 C -2.1256818229537213 1.4931008323444357 -2.1537298307662214 1.4652438635944356 -2.1537298307662214 1.4518884964069354 Z" fill="#d31b45" transform="matrix(1,0,0,1,0,0)" fill-rule="nonzero"></path></g></g><g transform="matrix(-0.3334513752090171,-0.9427672991630625,-0.9427672991630625,0.3334513752090171,10.065135754689349,7.116180632886329)"><g clip-path="url(#SvgjsClipPath1003)"><path d=" M 6.555843274419827 1.593081559883498 C 6.664027827154201 1.593081559883498 6.753323392583889 1.5037859944538106 6.753323392583889 1.3957924807819355 C 6.753323392583889 1.2877987500202168 6.663836788091701 1.1985036187702167 6.555652235357327 1.1985036187702167 C 6.447658938775295 1.1985036187702167 6.358554629497951 1.2877987500202168 6.358554629497951 1.3957924807819355 C 6.358554629497951 1.5037859944538106 6.4478497607479515 1.593081559883498 6.555843274419827 1.593081559883498 Z M 6.498221117193264 1.3770945325397481 C 6.486391891607326 1.3770945325397481 6.476661924810451 1.366600409492873 6.476661924810451 1.352098807930373 C 6.476661924810451 1.3372172991413105 6.486391891607326 1.326912044258498 6.498221117193264 1.326912044258498 C 6.509859303716701 1.326912044258498 6.519782480474514 1.3372172991413105 6.519782480474514 1.352098807930373 C 6.519782480474514 1.366600409492873 6.509859303716701 1.3770945325397481 6.498221117193264 1.3770945325397481 Z M 6.614229587896389 1.3770945325397481 C 6.602398191412014 1.3770945325397481 6.592859263677639 1.366600409492873 6.592859263677639 1.352098807930373 C 6.592859263677639 1.3372172991413105 6.602398191412014 1.326912044258498 6.614229587896389 1.326912044258498 C 6.625867774419826 1.326912044258498 6.635979819341701 1.3372172991413105 6.635979819341701 1.352098807930373 C 6.635979819341701 1.366600409492873 6.625867774419826 1.3770945325397481 6.614229587896389 1.3770945325397481 Z M 6.485818774419826 1.4518884964069354 C 6.485818774419826 1.447119032539748 6.490590409185452 1.4448287346881856 6.495168833990139 1.446927993477248 C 6.509670435552639 1.4545587014850605 6.526651203130764 1.463335643867873 6.555652235357327 1.463335643867873 C 6.584844306646389 1.463335643867873 6.601827245122951 1.4543676624225605 6.616326675787014 1.446927993477248 C 6.620716232427639 1.4448287346881856 6.6256767353573265 1.447119032539748 6.6256767353573265 1.4518884964069354 C 6.6256767353573265 1.4652438635944356 6.597628727544826 1.4931008323444357 6.555652235357327 1.4931008323444357 C 6.513866782232326 1.4931008323444357 6.485818774419826 1.4652438635944356 6.485818774419826 1.4518884964069354 Z" fill="#d31b45" transform="matrix(1,0,0,1,0,0)" fill-rule="nonzero"></path></g></g></g><defs><clipPath id="SvgjsClipPath1001"><path d=" M 0 0 h 4.472520021778605 v 4.904047065218011 h -4.472520021778605 Z"></path></clipPath><clipPath id="SvgjsClipPath10009013986c-3e3d-4ca7-81f8-e6652b53a274"><path d=" M 0 0 L 4.472520021778605 0 L 4.472520021778605 4.904047065218011 L 0 4.904047065218011 Z"></path></clipPath><clipPath id="SvgjsClipPath1002"><path d=" M -2.3874400729537215 1.099371495430373 h 0.6078515624999999 v 0.6078515625 h -0.6078515624999999 Z"></path></clipPath><clipPath id="SvgjsClipPath1003"><path d=" M 6.252108532232326 1.099371495430373 h 0.6078515624999999 v 0.6078515625 h -0.6078515624999999 Z"></path></clipPath></defs></svg>